<?xml version="1.0" encoding="UTF-8" standalone="no"?>
<!-- Created with Inkscape (http://www.inkscape.org/) -->

<svg
   width="73.025002mm"
   height="112.18333mm"
   viewBox="0 0 73.025002 112.18333"
   version="1.1"
   id="svg1"
   xml:space="preserve"
   inkscape:version="1.4.2 (ebf0e940, 2025-05-08)"
   sodipodi:docname="logo.svg"
   inkscape:export-filename="logo.png"
   inkscape:export-xdpi="96"
   inkscape:export-ydpi="96"
   xmlns:inkscape="http://www.inkscape.org/namespaces/inkscape"
   xmlns:sodipodi="http://sodipodi.sourceforge.net/DTD/sodipodi-0.dtd"
   xmlns="http://www.w3.org/2000/svg"
   xmlns:svg="http://www.w3.org/2000/svg"><sodipodi:namedview
     id="namedview1"
     pagecolor="#ffffff"
     bordercolor="#000000"
     borderopacity="0.25"
     inkscape:showpageshadow="2"
     inkscape:pageopacity="0.0"
     inkscape:pagecheckerboard="0"
     inkscape:deskcolor="#d1d1d1"
     inkscape:document-units="mm"
     inkscape:zoom="1.2146227"
     inkscape:cx="137.9029"
     inkscape:cy="211.99999"
     inkscape:window-width="1344"
     inkscape:window-height="734"
     inkscape:window-x="0"
     inkscape:window-y="33"
     inkscape:window-maximized="0"
     inkscape:current-layer="layer1" /><defs
     id="defs1" /><g
     inkscape:label="Camada 1"
     inkscape:groupmode="layer"
     id="layer1"
     transform="translate(-980.01666,-503.76666)"><path
       style="fill:#0000ff;stroke-width:0.160939"
       d="m 1024.9266,610.29573 c -0.6596,-0.0757 -0.9335,-0.17155 -1.6181,-0.56609 -0.5772,-0.33268 -1.1362,-0.86226 -1.5108,-1.43112 -0.4294,-0.65181 -0.5104,-0.83625 -0.7581,-1.72455 -0.069,-0.24743 -0.062,-2.07428 0.016,-2.32055 0.031,-0.10532 0.062,-0.22762 0.072,-0.27183 0.1433,-0.74209 1.2998,-2.33088 1.9044,-2.61549 0.098,-0.0464 0.2155,-0.12463 0.2601,-0.17406 0.045,-0.0494 0.098,-0.0899 0.1199,-0.0899 0.022,0 0.1184,-0.0394 0.217,-0.0875 0.54,-0.26416 1.3705,-0.43092 2.0928,-0.42014 0.5366,0.008 1.2671,0.14317 1.5405,0.28508 0.097,0.0502 0.2692,0.12697 0.3832,0.17075 0.7894,0.30264 1.6404,1.16359 2.1381,2.1632 0.2582,0.51862 0.3351,0.75217 0.3895,1.18109 0.023,0.18315 0.053,0.35098 0.067,0.37296 0.031,0.0499 0.033,1.26152 0,1.31121 -0.016,0.0199 -0.042,0.20595 -0.065,0.41335 -0.044,0.37963 -0.1465,0.69341 -0.3984,1.21023 -0.1567,0.3214 -0.566,0.95259 -0.718,1.10712 -0.7323,0.74437 -1.4435,1.19237 -2.2338,1.40727 -0.3801,0.10344 -1.3305,0.14317 -1.8895,0.079 z m 1.4547,-2.06604 c 0.2855,-0.0901 0.735,-0.35982 0.9087,-0.54563 0.4583,-0.49019 0.7405,-0.9493 0.8525,-1.38687 0.095,-0.37031 0.087,-1.21656 -0.016,-1.68688 -0.1874,-0.85878 -0.9767,-1.70964 -1.8368,-1.97994 -0.3273,-0.10283 -0.8874,-0.12043 -1.2375,-0.0389 -0.6473,0.1508 -1.3801,0.74654 -1.6886,1.37241 -0.2962,0.60074 -0.3253,0.71802 -0.3424,1.37389 -0.016,0.61281 0.016,0.76985 0.2296,1.35925 0.1572,0.42268 0.7603,1.10415 1.1861,1.34004 0.6347,0.35173 1.2469,0.41241 1.9441,0.19267 z m -21.6809,1.89723 c -0.1293,-0.0182 -0.5741,-0.0263 -0.9896,-0.0179 -0.7963,0.016 -0.8798,-0.002 -0.8867,-0.18474 -0.016,-0.2412 0.016,-1.62818 0.025,-1.96636 0.1464,-3.02315 0.1558,-4.87966 0.042,-7.85635 -0.016,-0.28105 -0.03,-0.90381 -0.042,-1.38392 -0.016,-0.48011 -0.034,-1.02752 -0.048,-1.21645 -0.037,-0.52566 -0.1996,-0.48885 2.1669,-0.49478 1.0828,-0.003 2.1697,-0.021 2.4157,-0.0408 0.528,-0.0424 1.5996,-0.0553 1.7731,-0.0215 0.067,0.0125 0.2176,0.0352 0.3347,0.0492 0.3421,0.0408 1.2893,0.39008 1.6247,0.59895 1.0788,0.67171 1.807,1.76583 2.0415,3.06797 0.065,0.36497 0.095,1.57776 0.042,1.75097 -0.015,0.0413 -0.053,0.27412 -0.087,0.51748 -0.036,0.24337 -0.081,0.46372 -0.1013,0.48969 -0.02,0.026 -0.07,0.16218 -0.1121,0.30271 -0.083,0.27158 -0.3348,0.77349 -0.5439,1.0791 -0.1988,0.29079 -0.7054,0.77751 -1.0396,0.99885 -0.3789,0.2509 -0.7897,0.42243 -1.3734,0.57338 -0.4392,0.11357 -0.4799,0.11638 -1.6427,0.11544 -0.6558,-6.5e-4 -1.4713,-0.0178 -1.8125,-0.038 -0.7249,-0.0431 -1.0217,0.003 -1.1343,0.1741 -0.069,0.10376 -0.065,0.60203 0.015,1.8451 0.047,0.77129 0.045,1.40751 0,1.52617 -0.048,0.11388 -0.2165,0.19089 -0.3747,0.1711 -0.026,-0.003 -0.1526,-0.0209 -0.2821,-0.0393 z m 4.3005,-5.55403 c 0.6367,-0.17127 1.0837,-0.48489 1.4269,-1.00127 0.3631,-0.54623 0.4923,-1.09533 0.4655,-1.97974 -0.03,-0.94945 -0.3401,-1.63228 -1.0057,-2.20548 -0.3362,-0.28967 -0.6239,-0.42591 -1.1069,-0.52401 -0.3058,-0.0622 -0.515,-0.0681 -1.5255,-0.043 -1.2613,0.0313 -1.7538,0.0718 -1.8505,0.15221 -0.1608,0.13351 -0.1703,0.29086 -0.1712,2.83317 0,2.71801 0,2.67977 0.2545,2.75861 0.1761,0.0536 1.3601,0.0985 2.3848,0.0905 0.6601,-0.005 0.9137,-0.0234 1.1281,-0.081 z m 5.9137,5.54062 c -0.1371,-0.0681 -0.1664,-0.25472 -0.1402,-0.87817 0.053,-1.2495 0.062,-1.59257 0.081,-3.12978 0.015,-0.88995 0,-1.74265 -0.019,-1.89489 -0.022,-0.15221 -0.048,-0.43008 -0.064,-0.61744 -0.03,-0.37289 -0.172,-1.37489 -0.2409,-1.68084 -0.023,-0.10594 -0.054,-0.30411 -0.067,-0.44021 -0.027,-0.2867 0.02,-0.34679 0.3053,-0.39171 0.093,-0.014 0.2301,-0.0453 0.303,-0.0679 0.073,-0.0226 0.3412,-0.0771 0.5961,-0.12105 0.255,-0.0441 0.5144,-0.0997 0.5766,-0.1237 0.1542,-0.0594 0.3446,-8.9e-4 0.406,0.12448 0.028,0.0569 0.073,0.27587 0.1,0.48665 0.073,0.58232 0.1199,0.62787 0.368,0.35996 0.1896,-0.20509 0.6901,-0.52535 1.1215,-0.71765 0.2921,-0.13024 0.5659,-0.17748 1.0828,-0.18711 0.3764,-0.006 0.5144,0.008 0.6844,0.0725 0.3815,0.14551 0.3829,0.14878 0.3257,0.77826 -0.026,0.30015 -0.048,0.70529 -0.048,0.9003 0,0.33531 -0.015,0.36134 -0.1246,0.47906 -0.1075,0.10672 -0.1567,0.12432 -0.3513,0.12339 -0.1246,-4.8e-4 -0.3036,-0.0203 -0.3973,-0.0436 -0.2365,-0.0592 -1.1909,-0.0545 -1.3784,0.008 -0.2284,0.0745 -0.5762,0.30847 -0.6843,0.46024 -0.1168,0.1646 -0.2527,0.54296 -0.3056,0.85432 -0.047,0.27311 -0.055,3.09131 -0.016,4.4351 0.016,0.50671 0.017,0.97084 8e-4,1.03139 -0.016,0.0606 -0.07,0.13351 -0.1231,0.16205 -0.1309,0.0712 -1.8582,0.0882 -1.9956,0.0196 z m 17.8685,-4.58281 c -0.3513,-0.0125 -0.6593,-0.0347 -0.6844,-0.0511 -0.031,-0.0199 -0.048,-0.47579 -0.053,-1.39134 -0.015,-1.18921 0,-1.37 0.059,-1.42859 0.037,-0.0369 0.09,-0.0686 0.1169,-0.0703 0.028,-0.002 4.2715,-0.003 9.4311,-0.002 l 9.3809,0.002 0.1587,0.0893 c 0.1512,0.0844 0.2453,0.22428 0.2822,0.4159 0.016,0.0471 0.047,0.14395 0.084,0.21529 0.053,0.10127 0.067,0.2706 0.067,0.77161 0,0.62509 0,0.65022 -0.1355,0.96419 -0.083,0.19853 -0.1767,0.34948 -0.2429,0.39291 -0.1,0.065 -0.8137,0.0723 -8.9665,0.0918 -4.8725,0.0125 -9.1465,0.0125 -9.4978,0 z m -50.8642,-0.0958 c -0.10096,-0.0689 -0.18208,-0.19108 -0.28819,-0.43387 -0.14504,-0.3319 -0.14784,-0.3494 -0.1533,-0.95809 l -0.005,-0.62003 0.15911,-0.32617 c 0.11778,-0.2416 0.19917,-0.35094 0.3137,-0.42173 l 0.15455,-0.0955 9.35054,0.003 c 8.89009,0.003 9.35329,0.006 9.40569,0.0785 0.04,0.0558 0.056,0.31883 0.059,1.01459 0,0.51663 0.016,1.11177 0.017,1.32254 0.016,0.30076 -10e-4,0.39929 -0.053,0.45777 -0.062,0.0706 -0.5665,0.0745 -9.44284,0.0745 h -9.37666 z m 16.26635,-11.21674 c -0.0586,-0.0125 -0.20449,-0.067 -0.32434,-0.12152 -0.11981,-0.0545 -0.3014,-0.12183 -0.40346,-0.14925 -0.44152,-0.11887 -1.06433,-0.52699 -1.53832,-1.008 -0.27088,-0.27489 -0.52365,-0.57612 -0.59444,-0.7084 -0.0255,-0.0477 -0.0823,-0.12526 -0.12588,-0.17214 -0.0436,-0.0469 -0.0795,-0.10189 -0.0795,-0.1223 0,-0.0204 -0.0556,-0.10781 -0.12339,-0.19424 -0.0679,-0.0865 -0.13709,-0.20509 -0.15392,-0.26363 -0.0168,-0.0586 -0.0651,-0.16394 -0.1075,-0.23421 -0.0424,-0.0703 -0.0992,-0.22356 -0.1265,-0.34065 -0.0271,-0.11716 -0.0645,-0.25124 -0.083,-0.29808 -0.0185,-0.0469 -0.0561,-0.14053 -0.0835,-0.20822 -0.0858,-0.21245 -0.13274,-0.74376 -0.13585,-1.53763 -0.003,-0.92564 0.0251,-1.20226 0.15834,-1.52102 0.0559,-0.13399 0.10189,-0.28725 0.10205,-0.34066 9e-5,-0.0533 0.0354,-0.15486 0.0784,-0.22536 0.043,-0.0706 0.11155,-0.22839 0.15206,-0.35078 0.0407,-0.12245 0.0919,-0.2337 0.11404,-0.24735 0.022,-0.014 0.0904,-0.12401 0.15174,-0.24536 0.21121,-0.41746 0.89452,-1.2136 1.20071,-1.39893 0.0854,-0.0517 0.2218,-0.14785 0.30327,-0.21359 0.0815,-0.0657 0.16645,-0.11965 0.18887,-0.11965 0.0224,0 0.0829,-0.0396 0.13429,-0.0879 0.0514,-0.0483 0.20105,-0.11591 0.33243,-0.15034 0.13133,-0.0343 0.30127,-0.0982 0.37757,-0.14192 0.0762,-0.0438 0.26327,-0.0932 0.4155,-0.10968 0.15221,-0.0165 0.30552,-0.036 0.34065,-0.0433 0.60535,-0.12511 1.02366,-0.12479 1.80883,0.002 0.7549,0.12152 1.3936,0.4831 2.0802,1.17786 0.4815,0.48715 0.5406,0.49055 0.6067,0.0349 0.042,-0.28775 0.086,-0.42475 0.2472,-0.76647 0.068,-0.14442 0.3284,-0.15889 0.7501,-0.0419 0.1758,0.0488 0.4423,0.10812 0.5925,0.1318 0.3046,0.0481 0.5755,0.16857 0.6159,0.27365 0.042,0.10937 0.028,0.28221 -0.039,0.46673 -0.033,0.0936 -0.081,0.45776 -0.1059,0.80906 -0.025,0.3513 -0.075,0.84685 -0.1106,1.10119 -0.036,0.25437 -0.078,0.5897 -0.094,0.74519 -0.045,0.44465 -0.03,1.90206 0.025,2.34793 0.081,0.65428 0.097,0.93255 0.1599,3.08917 0.022,0.74588 0.017,0.81647 -0.053,0.87869 -0.059,0.0525 -0.2156,0.0731 -0.6942,0.0914 -0.3396,0.0125 -0.6558,0.0338 -0.7026,0.046 -0.1496,0.0393 -0.4157,0.0608 -0.474,0.0383 -0.1511,-0.058 -0.3966,-0.75058 -0.3983,-1.12252 -8e-4,-0.26816 -0.2021,-0.34175 -0.387,-0.14178 -0.056,0.0614 -0.1703,0.15651 -0.2524,0.21145 -0.083,0.055 -0.2256,0.15741 -0.3194,0.22769 -0.3382,0.25383 -0.6024,0.41716 -0.7574,0.46833 -0.087,0.0287 -0.158,0.0678 -0.158,0.0868 0,0.0399 -0.3113,0.17166 -0.4056,0.17166 -0.034,0 -0.1637,0.0498 -0.2866,0.11092 -0.21082,0.10469 -0.26519,0.11171 -0.9686,0.12479 -0.40973,0.008 -0.79303,0.003 -0.85159,-0.009 z m 2.04015,-2.24903 c 0.2697,-0.0475 0.4291,-0.10516 0.6454,-0.23363 0.311,-0.1848 0.8014,-0.63822 0.9044,-0.83623 0.036,-0.0678 0.1137,-0.16963 0.1746,-0.2264 0.061,-0.0567 0.1106,-0.12386 0.1106,-0.14909 0,-0.0252 0.048,-0.14162 0.1091,-0.25871 0.3331,-0.65334 0.3437,-2.3095 0.017,-2.78912 -0.04,-0.0586 -0.095,-0.17804 -0.1246,-0.26555 -0.028,-0.0876 -0.07,-0.17055 -0.093,-0.18455 -0.022,-0.014 -0.09,-0.10267 -0.1495,-0.19691 -0.1642,-0.2601 -0.6371,-0.70512 -0.8798,-0.82815 -0.1184,-0.0603 -0.2429,-0.13616 -0.2755,-0.16883 -0.033,-0.0326 -0.072,-0.0594 -0.089,-0.0597 -0.016,-1.6e-4 -0.1527,-0.0204 -0.3035,-0.0449 -0.43714,-0.0709 -0.91153,-0.0751 -1.30818,-0.0109 -0.30458,0.0488 -0.41955,0.0913 -0.66991,0.24754 -0.49084,0.30641 -0.76027,0.56437 -1.0683,1.02287 -0.40343,0.6005 -0.50054,0.93421 -0.52325,1.79823 -0.0156,0.57015 -0.006,0.68594 0.0743,0.95809 0.15128,0.5125 0.19516,0.60855 0.454,0.99354 0.22054,0.32804 0.77778,0.91284 0.86981,0.91284 0.019,0 0.12681,0.0572 0.23967,0.12713 0.38749,0.2402 1.16318,0.31968 1.88326,0.19295 z m 9.9392,2.23529 c -0.098,-0.0206 -0.2326,-0.0659 -0.2999,-0.1008 -0.067,-0.0347 -0.241,-0.0939 -0.3863,-0.13165 -0.1449,-0.0377 -0.3532,-0.11591 -0.4623,-0.17377 -0.109,-0.058 -0.2215,-0.10531 -0.2503,-0.10531 -0.03,0 -0.078,-0.0307 -0.1091,-0.0682 -0.031,-0.0376 -0.158,-0.13305 -0.282,-0.21235 -0.3686,-0.23585 -1.0026,-0.90579 -1.2686,-1.34057 -0.1665,-0.27209 -0.3152,-0.53078 -0.3655,-0.63572 -0.1941,-0.40479 -0.2717,-0.58583 -0.2827,-0.66004 -0.016,-0.10453 -0.1309,-0.7269 -0.1619,-0.87292 -0.058,-0.27346 -0.073,-0.49052 -0.076,-1.04325 0,-0.48578 0.019,-0.69864 0.1121,-1.14971 0.1356,-0.66053 0.194,-0.85829 0.2699,-0.92133 0.031,-0.026 0.058,-0.0794 0.058,-0.11871 0,-0.0897 0.284,-0.67907 0.4624,-0.95925 0.3063,-0.48137 1.0081,-1.1586 1.4886,-1.43645 0.1091,-0.0629 0.244,-0.14909 0.3004,-0.1916 0.1012,-0.0759 0.4655,-0.21567 0.8698,-0.33337 0.1121,-0.0327 0.4764,-0.0821 0.809,-0.10952 0.5111,-0.0424 0.6827,-0.0397 1.1077,0.0163 0.2929,0.0388 0.5683,0.10049 0.6599,0.14801 0.087,0.0449 0.2564,0.11435 0.3775,0.15439 0.1215,0.04 0.2442,0.10173 0.2735,0.13694 0.03,0.0354 0.1512,0.12962 0.2694,0.20971 0.1184,0.0801 0.3599,0.28031 0.5355,0.445 0.334,0.31303 0.4912,0.39541 0.5602,0.29353 0.025,-0.0358 0.034,-1.16337 0.027,-2.86251 l -0.016,-2.80352 0.094,-0.0752 c 0.1121,-0.0904 0.5384,-0.13539 1.8268,-0.19309 0.4554,-0.0204 0.5224,-0.014 0.582,0.0519 0.059,0.0656 0.066,0.22251 0.052,1.24594 -0.017,1.23086 -0.058,2.57601 -0.083,2.73673 -0.094,0.58924 -0.1278,1.94266 -0.1278,5.07704 3e-4,3.28752 0.016,3.63103 0.1278,4.76919 0.072,0.68513 0.07,0.85578 0,0.91603 -0.058,0.048 -0.2797,0.0605 -1.0956,0.062 -1.1901,0.003 -1.1256,0.0284 -1.1639,-0.47185 -0.016,-0.1613 -0.03,-0.36994 -0.039,-0.46362 -0.016,-0.0936 -0.017,-0.20386 -0.019,-0.24484 0,-0.0533 -0.037,-0.0745 -0.1262,-0.0745 -0.1278,0 -0.3315,0.14706 -0.6579,0.47356 -0.2722,0.27214 -1.0783,0.76102 -1.2556,0.7615 -0.039,1.1e-4 -0.2238,0.0609 -0.4113,0.13539 -0.3277,0.13008 -0.367,0.13554 -1.0431,0.1466 -0.3865,0.006 -0.7827,-0.005 -0.8804,-0.026 z m 1.7322,-2.11952 c 0.1293,-0.0324 0.3417,-0.0832 0.4734,-0.11311 0.344,-0.078 0.7073,-0.31721 1.0734,-0.70647 0.3352,-0.35627 0.6728,-0.91695 0.7274,-1.20791 0.016,-0.0862 0.067,-0.2735 0.1121,-0.41641 0.1278,-0.40099 0.1169,-1.14294 -0.023,-1.58587 -0.059,-0.18448 -0.106,-0.36461 -0.106,-0.40028 0,-0.0357 -0.053,-0.15284 -0.1184,-0.26023 -0.064,-0.10749 -0.1464,-0.2447 -0.181,-0.30505 -0.036,-0.0603 -0.1013,-0.17532 -0.148,-0.25549 -0.1293,-0.22263 -0.6553,-0.71305 -0.8941,-0.83474 -0.1168,-0.0597 -0.2426,-0.13445 -0.2787,-0.16617 -0.1028,-0.09 -0.9095,-0.19717 -1.2543,-0.16652 -0.5035,0.0447 -0.8038,0.10703 -0.9204,0.19056 -0.061,0.0439 -0.1823,0.10968 -0.2689,0.14582 -0.1527,0.0637 -0.7528,0.63759 -0.9519,0.90987 -0.053,0.0732 -0.1184,0.19628 -0.1449,0.27359 -0.026,0.0773 -0.09,0.19254 -0.1433,0.25613 -0.053,0.0636 -0.109,0.19666 -0.1262,0.29572 -0.017,0.0991 -0.067,0.28653 -0.1122,0.41665 -0.1075,0.31085 -0.1152,1.12076 -0.015,1.40764 0.037,0.10531 0.087,0.29622 0.1121,0.42414 0.025,0.13165 0.089,0.28552 0.1465,0.35457 0.056,0.0671 0.1028,0.15237 0.1028,0.18935 0,0.0371 0.075,0.16492 0.1665,0.28415 0.2203,0.28662 0.7941,0.87681 0.8527,0.87681 0.025,0 0.1231,0.0553 0.2158,0.12292 0.093,0.0676 0.2511,0.13554 0.3508,0.15096 0.1,0.0156 0.2867,0.0656 0.4155,0.11139 0.2666,0.0947 0.5814,0.0974 0.937,0.008 z m -30.17928,1.86079 c -0.0991,-0.0125 -0.19342,-0.0372 -0.2096,-0.0534 -0.0556,-0.0555 0.0198,-3.4928 0.0888,-4.05294 0.0351,-0.28477 0.0851,-2.49621 0.0793,-3.513 -0.006,-1.23273 -0.0522,-3.23802 -0.0757,-3.36069 -0.009,-0.045 -0.0274,-0.2988 -0.0416,-0.56412 -0.014,-0.26533 -0.0338,-0.5399 -0.0436,-0.61016 -0.009,-0.0703 -0.0307,-0.63764 -0.0466,-1.26086 -0.024,-0.94018 -0.0189,-1.13958 0.0299,-1.17101 0.0495,-0.0319 2.17805,-0.0572 6.44607,-0.076 0.96817,-0.005 1.4995,0.052 1.80221,0.19114 0.10126,0.0466 0.24497,0.096 0.31936,0.10968 0.0745,0.014 0.22149,0.0701 0.32687,0.12494 0.10532,0.0548 0.2429,0.11841 0.30556,0.14131 0.37194,0.13538 1.56634,1.28126 1.82354,1.74952 0.0352,0.0639 0.10703,0.1947 0.15969,0.29051 0.0526,0.0958 0.0958,0.20001 0.0958,0.23152 0,0.0315 0.0463,0.12012 0.10313,0.19704 0.0567,0.077 0.12635,0.23867 0.15455,0.35958 0.0284,0.1209 0.0651,0.23899 0.0818,0.2624 0.0167,0.0235 0.0659,0.16714 0.10952,0.31936 0.0685,0.23958 0.0793,0.43708 0.0804,1.46909 8.8e-4,1.15467 -0.0344,1.55844 -0.15065,1.70618 -0.0196,0.0249 -0.058,0.14956 -0.0849,0.27678 -0.027,0.12713 -0.12338,0.38671 -0.21412,0.57668 -0.0908,0.18998 -0.16503,0.36487 -0.16503,0.38868 0,0.0238 -0.0299,0.0681 -0.0664,0.0983 -0.0365,0.0302 -0.0943,0.12183 -0.12837,0.20361 -0.0341,0.0816 -0.10018,0.1886 -0.14691,0.23758 -0.0963,0.10111 -0.32217,0.36316 -0.48927,0.56762 -0.18332,0.22434 -0.94701,0.77505 -1.16762,0.842 -0.057,0.0173 -0.18918,0.077 -0.29378,0.13258 -0.10454,0.0556 -0.22464,0.10111 -0.26678,0.10111 -0.0422,0 -0.2357,0.0503 -0.43013,0.11201 -0.24277,0.077 -0.50022,0.12105 -0.82189,0.14084 -0.47951,0.0294 -0.60631,0.0287 -3.01643,-0.0178 -1.26387,-0.0245 -1.40876,-0.0201 -1.50703,0.0442 l -0.10875,0.0714 0.0279,1.15542 c 0.0156,0.63548 0.0397,1.44486 0.0542,1.7986 0.0173,0.42298 0.0109,0.67081 -0.0188,0.72389 -0.0427,0.0762 -0.11123,0.0807 -1.22981,0.0807 -0.65153,0 -1.26568,-0.0109 -1.36476,-0.024 z m 6.57517,-5.87452 c 0.16816,-0.0196 0.35021,-0.0637 0.40453,-0.0977 0.0544,-0.0341 0.20387,-0.096 0.33235,-0.13741 0.12853,-0.0416 0.32969,-0.14286 0.44711,-0.22521 0.23714,-0.16633 0.58507,-0.52436 0.66896,-0.68836 0.0299,-0.0586 0.10548,-0.17352 0.16787,-0.2555 0.0623,-0.082 0.1806,-0.34511 0.26268,-0.58475 l 0.14925,-0.43574 -0.009,-0.82044 c -0.009,-0.70957 -0.0223,-0.85495 -0.10002,-1.07592 -0.0495,-0.14053 -0.11108,-0.33733 -0.13695,-0.43734 -0.0259,-0.10002 -0.0893,-0.24733 -0.14083,-0.32734 -0.0517,-0.0801 -0.14177,-0.22523 -0.20038,-0.32266 -0.17842,-0.2969 -0.74968,-0.82963 -1.03916,-0.96907 -0.73473,-0.35393 -0.57994,-0.32853 -1.98113,-0.32498 -0.69256,0.002 -1.56361,0.0182 -1.93568,0.0366 l -0.67647,0.0335 -0.14816,0.13586 -0.14815,0.13585 -0.0296,1.06235 c -0.0333,1.19415 -0.0198,4.57226 0.0195,4.84492 0.0164,0.1145 0.0689,0.22161 0.14785,0.3017 l 0.12229,0.12417 0.84378,0.0249 c 1.357,0.04 2.65113,0.0411 2.98055,0.003 z m 30.84961,5.87141 c -0.1863,-0.0689 -0.1994,-0.13726 -0.1802,-0.94821 0.042,-1.80037 0.025,-5.20325 -0.031,-5.68869 -0.087,-0.7746 -0.1308,-1.40986 -0.1561,-2.23555 -0.031,-1.05343 -0.03,-1.05844 0.6581,-0.9566 0.5601,0.083 1.3071,0.0645 1.5867,-0.0394 0.1278,-0.0477 0.2342,-0.0268 0.3381,0.0667 0.1449,0.1304 0.1637,0.24821 0.1215,0.75102 -0.1231,1.46813 -0.1449,2.35117 -0.148,5.80622 0,1.76038 -0.017,3.21491 -0.034,3.23228 -0.039,0.0388 -2.0522,0.0502 -2.1547,0.0125 z m 6.9796,-0.005 c -0.1742,-0.0206 -0.3984,-0.0746 -0.4981,-0.11996 -0.1,-0.0455 -0.2075,-0.0827 -0.2395,-0.0827 -0.1774,0 -1.1815,-0.88809 -1.1815,-1.04503 0,-0.0251 -0.047,-0.10937 -0.1044,-0.18739 -0.058,-0.0781 -0.1262,-0.24726 -0.1527,-0.3761 -0.026,-0.12884 -0.086,-0.34781 -0.1308,-0.48657 -0.078,-0.23804 -0.1122,-0.51789 -0.1935,-1.63083 -0.044,-0.59346 -0.045,-2.36603 0,-2.98073 0.019,-0.25762 0.045,-0.65043 0.059,-0.87292 0.016,-0.2225 0.03,-0.4237 0.036,-0.44711 0.016,-0.0234 0.023,-0.11918 0.04,-0.21291 0.017,-0.0936 0.048,-0.21823 0.07,-0.27678 0.058,-0.15533 0.075,-0.28898 0.08,-0.56587 0,-0.22455 0.017,-0.26192 0.1647,-0.41971 l 0.1617,-0.17324 0.9043,0.006 c 0.4975,0.003 0.9332,0.0175 0.9685,0.031 0.1215,0.0464 0.1872,0.24786 0.1676,0.5102 -0.047,0.61474 -0.067,0.85415 -0.084,0.97311 -0.016,0.0703 -0.03,0.20439 -0.042,0.29808 -0.016,0.0936 -0.033,0.22782 -0.044,0.29806 -0.076,0.48374 -0.1091,1.11922 -0.1091,2.18283 0,1.23175 0.022,1.73668 0.089,2.0115 0.1433,0.58885 0.1873,0.71167 0.3222,0.90827 0.083,0.12105 0.1926,0.25687 0.2432,0.30175 0.051,0.0449 0.1324,0.11701 0.1807,0.16039 0.048,0.0433 0.2882,0.15486 0.5324,0.24775 0.5314,0.20243 0.9263,0.22931 1.2659,0.0861 0.1091,-0.0463 0.2805,-0.10158 0.3792,-0.12292 0.3183,-0.0689 0.8008,-0.39774 1.3012,-0.88724 0.3803,-0.3721 0.4922,-0.56659 0.537,-0.93387 0.02,-0.16092 0.039,-1.51732 0.044,-3.01422 0.015,-1.52714 0.025,-2.75329 0.047,-2.79373 0.022,-0.0396 0.09,-0.10625 0.1542,-0.14816 0.1013,-0.0664 0.237,-0.0774 1.0667,-0.0866 l 0.9507,-0.0109 0.1324,0.12339 0.1324,0.12339 -0.03,0.71294 c -0.017,0.39211 -0.036,0.83749 -0.044,0.98972 -0.062,1.27303 -0.076,2.0333 -0.07,3.78979 0.016,1.11246 0.016,2.08012 0.023,2.15038 0.016,0.0703 0.03,0.50141 0.044,0.9581 0.026,0.80853 0.025,0.83313 -0.065,0.9368 l -0.092,0.1064 -1.0261,-0.009 c -0.5646,-0.005 -1.0673,-0.0185 -1.1173,-0.0312 -0.087,-0.0217 -0.092,-0.055 -0.1153,-0.66628 -0.019,-0.5099 -0.039,-0.65937 -0.093,-0.72008 -0.1122,-0.12401 -0.2976,-0.0416 -0.6905,0.30691 -0.2251,0.19962 -0.7358,0.52841 -0.9901,0.63735 -0.1059,0.0457 -0.2224,0.10828 -0.2575,0.13897 -0.036,0.0307 -0.179,0.0886 -0.3194,0.12869 -0.1402,0.04 -0.2773,0.0908 -0.3041,0.11279 -0.1355,0.11061 -1.3966,0.15252 -2.0991,0.0695 z m 9.625,-0.0156 c -0.076,-0.0319 -0.134,-0.0882 -0.1355,-0.13211 0,-0.0421 0,-1.37958 0,-2.97214 0,-2.21543 -0.016,-3.1056 -0.061,-3.78979 -0.036,-0.49183 -0.075,-0.94211 -0.087,-1.00068 -0.016,-0.0586 -0.031,-0.15112 -0.041,-0.20566 -0.016,-0.0545 -0.03,-0.13118 -0.04,-0.17033 -0.052,-0.1649 -0.1496,-0.81 -0.1512,-0.99067 0,-0.13772 0.023,-0.21697 0.08,-0.26773 0.081,-0.0734 0.1184,-0.0799 0.8952,-0.15439 0.2894,-0.0279 0.5742,-0.0877 0.8227,-0.17304 0.3423,-0.11747 0.3895,-0.12448 0.4739,-0.0692 0.1013,0.0664 0.2191,0.41103 0.2647,0.77476 0.081,0.64461 0.2015,0.71219 0.6062,0.33931 0.2758,-0.25394 0.7036,-0.57796 0.9455,-0.71605 0.5861,-0.33447 0.6447,-0.36442 1.0646,-0.54431 l 0.3195,-0.13679 0.809,0.003 c 0.8259,0.003 0.9256,0.0165 1.4503,0.19729 0.4523,0.15587 0.9852,0.58053 1.2323,0.98198 0.047,0.0762 0.1184,0.17161 0.1596,0.21229 0.04,0.0407 0.087,0.12525 0.1012,0.18805 0.073,0.30526 0.1765,0.28914 0.5715,-0.089 0.4843,-0.46368 0.8355,-0.7375 1.1675,-0.91024 0.1645,-0.0857 0.3501,-0.19119 0.4122,-0.2345 0.062,-0.0433 0.1356,-0.0787 0.1631,-0.0787 0.028,0 0.1962,-0.0584 0.3744,-0.12977 0.2899,-0.11607 0.3808,-0.13133 0.8587,-0.1438 0.7033,-0.0184 1.3629,0.0354 1.5369,0.12542 0.075,0.0389 0.2264,0.0974 0.3355,0.12977 0.2056,0.0611 0.5755,0.30406 0.7833,0.51465 0.2397,0.24288 0.496,0.65547 0.5596,0.90082 0.034,0.13539 0.098,0.31237 0.1402,0.3933 0.069,0.13508 0.076,0.33965 0.084,2.48916 0.016,1.28809 0.016,3.07485 0.019,3.97058 0.016,1.21824 0,1.64142 -0.041,1.67948 -0.037,0.0369 -0.3437,0.0499 -1.1206,0.0472 -0.9321,-0.003 -1.0786,-0.0125 -1.1393,-0.0737 -0.076,-0.0763 -0.081,-0.27904 -0.053,-2.64289 0.027,-2.31069 0,-3.81618 -0.067,-4.06657 -0.036,-0.12884 -0.089,-0.34261 -0.1184,-0.47508 -0.059,-0.26509 -0.2419,-0.52175 -0.5532,-0.77675 -0.1645,-0.13492 -0.224,-0.15533 -0.5785,-0.19836 -0.5783,-0.0703 -1.2038,-0.0109 -1.4091,0.13445 -0.061,0.0433 -0.1612,0.0977 -0.222,0.12074 -0.1465,0.0558 -0.5384,0.35529 -0.8165,0.62405 -0.2069,0.20002 -0.3851,0.43257 -0.5238,0.68374 -0.062,0.11404 -0.095,3.47244 -0.053,5.4016 0.023,1.02421 0.016,1.2505 -0.1012,1.26058 -0.1708,0.0162 -2.0972,-0.008 -2.1573,-0.0268 -0.093,-0.0294 -0.1662,-0.22901 -0.1433,-0.38952 0.016,-0.0662 0.028,-1.46178 0.039,-3.10119 l 0.022,-2.98073 -0.1246,-0.47883 c -0.1355,-0.52145 -0.1999,-0.63791 -0.5038,-0.90811 -0.3267,-0.2904 -0.4984,-0.34677 -1.0703,-0.35116 -0.6176,-0.005 -0.8787,0.0338 -1.0686,0.15751 -0.083,0.0534 -0.1918,0.10812 -0.244,0.12136 -0.1933,0.0494 -0.7626,0.44597 -1.0365,0.72205 -0.2059,0.20767 -0.2961,0.33454 -0.3326,0.46839 -0.054,0.19889 -0.073,2.03513 -0.051,4.94726 0.016,1.63991 0.016,1.65605 -0.078,1.74586 -0.086,0.0869 -0.1309,0.0908 -1.0644,0.095 -0.7135,0.003 -1.0091,-0.0109 -1.106,-0.0511 z m -16.0426,-11.25924 c -0.073,-0.0162 -0.2075,-0.0752 -0.2979,-0.13149 -0.09,-0.0561 -0.2152,-0.13086 -0.2773,-0.166 -0.2904,-0.16439 -0.4177,-0.4746 -0.397,-0.96627 0.017,-0.39089 0.061,-0.54487 0.205,-0.71827 0.3562,-0.42782 0.5732,-0.53692 1.1207,-0.56335 0.3535,-0.017 0.413,-0.008 0.6358,0.0936 0.3343,0.15299 0.5649,0.35272 0.7355,0.63673 0.1308,0.21881 0.1433,0.26519 0.1386,0.5691 0,0.27718 -0.025,0.37399 -0.1355,0.59651 -0.1138,0.23128 -0.1694,0.29096 -0.4327,0.46124 l -0.3024,0.19557 -0.4296,0.0109 c -0.2364,0.006 -0.49,-0.003 -0.5637,-0.0184 z m -6.4664,-7.7507 c -0.2809,-0.0189 -0.6601,-0.0637 -0.8425,-0.0999 -0.1823,-0.0361 -0.4697,-0.077 -0.6387,-0.0908 -0.6383,-0.0522 -1.0491,-0.1089 -1.2161,-0.16773 -0.095,-0.0335 -0.3317,-0.084 -0.526,-0.11233 -0.1944,-0.0282 -0.4588,-0.0877 -0.5876,-0.13195 -0.1293,-0.0443 -0.4425,-0.10968 -0.6971,-0.1452 -0.2545,-0.0355 -0.5323,-0.0916 -0.6174,-0.12433 -0.086,-0.0327 -0.279,-0.0813 -0.4309,-0.10781 -0.1511,-0.0265 -0.3818,-0.0919 -0.511,-0.14535 -0.1293,-0.0534 -0.3401,-0.11046 -0.4689,-0.12666 -0.1293,-0.0162 -0.277,-0.0572 -0.3292,-0.0911 -0.053,-0.034 -0.2449,-0.0975 -0.428,-0.1413 -0.1832,-0.0438 -0.4092,-0.11841 -0.5026,-0.166 -0.093,-0.0475 -0.2823,-0.10734 -0.4203,-0.13289 -0.1387,-0.0255 -0.2906,-0.0721 -0.3392,-0.1036 -0.048,-0.0315 -0.2322,-0.10049 -0.4078,-0.1533 -0.1758,-0.0528 -0.3386,-0.11155 -0.3621,-0.13056 -0.023,-0.0189 -0.1511,-0.0659 -0.2843,-0.10438 -0.1324,-0.0385 -0.2885,-0.10672 -0.3454,-0.15159 -0.058,-0.0449 -0.1826,-0.0992 -0.279,-0.12089 -0.097,-0.0217 -0.2423,-0.0788 -0.3239,-0.12713 -0.083,-0.0483 -0.2212,-0.10095 -0.3097,-0.117 -0.089,-0.0161 -0.2705,-0.0841 -0.4045,-0.15112 -0.134,-0.0672 -0.2799,-0.12199 -0.3242,-0.12199 -0.044,0 -0.1527,-0.0575 -0.2413,-0.12775 -0.089,-0.0703 -0.189,-0.12775 -0.2236,-0.12775 -0.034,0 -0.1511,-0.0456 -0.2603,-0.10142 -0.1091,-0.0558 -0.3986,-0.19966 -0.6446,-0.31979 -0.2458,-0.12012 -0.49493,-0.24627 -0.55351,-0.28031 -0.0592,-0.034 -0.26703,-0.13865 -0.46348,-0.23238 -0.1963,-0.0938 -0.38793,-0.19718 -0.42578,-0.22981 -0.0374,-0.0326 -0.24133,-0.15158 -0.45205,-0.26441 -0.21078,-0.11279 -0.5461,-0.31025 -0.74519,-0.43876 -0.50934,-0.3288 -0.63106,-0.40408 -0.87293,-0.53973 -0.24939,-0.1399 -0.76014,-0.49411 -0.78066,-0.54146 -0.008,-0.0181 -0.0369,-0.0327 -0.0648,-0.0327 -0.0279,0 -0.11731,-0.0544 -0.19873,-0.12074 -0.0815,-0.0665 -0.34929,-0.2706 -0.59519,-0.45369 -0.24592,-0.1831 -0.47586,-0.36756 -0.51099,-0.40994 -0.0352,-0.0424 -0.13382,-0.1304 -0.21923,-0.19566 -1.28369,-0.98029 -3.91062,-3.59402 -5.06092,-5.03543 -0.082,-0.10267 -0.20652,-0.25666 -0.27678,-0.34208 -0.53716,-0.65311 -0.78296,-0.97479 -1.06561,-1.39456 -0.11498,-0.17066 -0.14536,-0.21042 -0.51234,-0.67066 -0.13071,-0.16394 -0.27443,-0.36864 -0.3193,-0.45487 -0.0449,-0.0861 -0.10142,-0.16903 -0.12557,-0.18399 -0.0243,-0.0156 -0.0916,-0.11685 -0.14972,-0.22645 -0.0581,-0.10952 -0.14208,-0.24715 -0.18662,-0.30569 -0.0446,-0.0586 -0.16058,-0.24059 -0.25801,-0.40454 -0.0974,-0.16394 -0.24484,-0.39387 -0.3276,-0.51098 -0.0827,-0.11716 -0.19795,-0.3135 -0.25599,-0.43646 -0.0581,-0.12292 -0.1212,-0.22356 -0.14036,-0.22356 -0.0192,0 -0.0671,-0.0815 -0.10672,-0.18097 -0.0396,-0.0996 -0.10797,-0.21984 -0.15221,-0.26734 -0.0443,-0.0475 -0.10999,-0.17041 -0.14614,-0.2731 -0.0361,-0.10267 -0.0843,-0.20894 -0.10687,-0.23606 -0.0428,-0.0516 -0.36688,-0.69939 -0.53283,-1.06516 -0.0531,-0.11715 -0.15423,-0.33746 -0.22461,-0.48969 -0.0704,-0.15221 -0.1508,-0.34863 -0.17852,-0.43647 -0.0277,-0.0879 -0.0678,-0.15967 -0.0886,-0.15967 -0.0209,0 -0.0695,-0.10781 -0.10766,-0.23952 -0.0383,-0.1318 -0.10438,-0.29937 -0.14675,-0.37257 -0.0424,-0.0732 -0.0999,-0.21933 -0.1276,-0.32472 -0.0277,-0.10532 -0.0964,-0.26995 -0.15252,-0.36568 -0.0561,-0.0958 -0.10205,-0.2224 -0.10205,-0.28144 0,-0.059 -0.055,-0.21067 -0.12229,-0.3369 -0.0673,-0.1262 -0.13632,-0.3158 -0.15346,-0.42118 -0.0171,-0.10531 -0.0572,-0.24911 -0.0888,-0.31937 -0.0318,-0.0703 -0.0986,-0.28774 -0.14863,-0.48329 -0.05,-0.19553 -0.11934,-0.42383 -0.15423,-0.50732 -0.0349,-0.0835 -0.0823,-0.26828 -0.10516,-0.41067 -0.0229,-0.1424 -0.0784,-0.34183 -0.12324,-0.4432 -0.0449,-0.10142 -0.10329,-0.30268 -0.12977,-0.44736 -0.0266,-0.14473 -0.093,-0.41636 -0.14769,-0.60373 -0.0547,-0.18736 -0.11155,-0.44604 -0.12651,-0.57485 -0.0156,-0.12884 -0.0721,-0.36933 -0.12712,-0.53452 -0.055,-0.16517 -0.11171,-0.46218 -0.12604,-0.66002 -0.014,-0.19782 -0.0336,-0.38844 -0.0428,-0.42357 -0.009,-0.0352 -0.0274,-0.15003 -0.0407,-0.25548 -0.0125,-0.10532 -0.0435,-0.2587 -0.0673,-0.34066 -0.0238,-0.082 -0.0717,-0.49538 -0.10625,-0.91868 -0.0346,-0.42329 -0.0838,-0.8736 -0.10937,-1.00066 -0.0255,-0.12713 -0.0561,-0.28853 -0.0679,-0.35879 -0.0943,-0.55921 -0.0901,-5.12224 0.005,-5.72727 0.009,-0.0586 0.0457,-0.28849 0.081,-0.51098 0.0354,-0.22249 0.0762,-0.58656 0.091,-0.80905 0.0304,-0.46079 0.0536,-0.65575 0.11326,-0.9581 0.0231,-0.11715 0.0511,-0.26081 0.0622,-0.31936 0.0109,-0.0586 0.0284,-0.13523 0.0386,-0.17033 0.0109,-0.0352 0.0386,-0.24316 0.0631,-0.46228 0.0245,-0.21914 0.0668,-0.43949 0.0941,-0.4897 0.0273,-0.0502 0.083,-0.32122 0.12401,-0.60225 0.041,-0.28104 0.10516,-0.57189 0.14287,-0.64634 0.0375,-0.0745 0.0975,-0.30268 0.1332,-0.5072 0.0357,-0.20451 0.0996,-0.44062 0.14177,-0.52467 0.0424,-0.084 0.0904,-0.24863 0.10687,-0.36572 0.0164,-0.11716 0.0756,-0.31388 0.13134,-0.43728 0.0558,-0.12339 0.12339,-0.34377 0.15018,-0.48969 0.0268,-0.14598 0.0837,-0.34334 0.12635,-0.4387 0.0427,-0.0953 0.0905,-0.24864 0.10656,-0.34065 0.0159,-0.0919 0.082,-0.29184 0.1466,-0.44406 0.0648,-0.15221 0.14178,-0.35343 0.17122,-0.44711 0.0294,-0.0936 0.0773,-0.19907 0.10625,-0.2342 0.029,-0.0352 0.0757,-0.15832 0.10376,-0.27378 0.028,-0.11544 0.0858,-0.25915 0.12837,-0.31936 0.0425,-0.0601 0.0913,-0.17653 0.10844,-0.25851 0.017,-0.0819 0.0844,-0.24484 0.14956,-0.36194 0.0651,-0.11715 0.1318,-0.26081 0.148,-0.31936 0.0162,-0.0586 0.0779,-0.21184 0.1371,-0.34065 0.0592,-0.12884 0.16459,-0.35876 0.23433,-0.51099 0.0696,-0.15221 0.18265,-0.38461 0.25092,-0.51639 0.0684,-0.1318 0.12416,-0.26027 0.12416,-0.28552 0,-0.0252 0.048,-0.11654 0.10641,-0.20281 0.0586,-0.0863 0.10641,-0.18605 0.10641,-0.22171 0,-0.0357 0.0553,-0.15284 0.12292,-0.26021 0.0676,-0.1075 0.14566,-0.2672 0.17363,-0.35502 0.0279,-0.0879 0.067,-0.15969 0.0869,-0.15969 0.0199,0 0.0846,-0.10235 0.1438,-0.22732 0.059,-0.1251 0.13507,-0.25021 0.16883,-0.27819 0.0336,-0.0281 0.086,-0.11249 0.11622,-0.18786 0.0302,-0.0752 0.1089,-0.19991 0.1749,-0.27684 0.0661,-0.077 0.11996,-0.16351 0.11996,-0.19238 0,-0.0288 0.0469,-0.12152 0.10422,-0.20596 0.0573,-0.0844 0.11607,-0.20035 0.1304,-0.25769 0.014,-0.0573 0.0737,-0.15957 0.1318,-0.2272 0.0581,-0.0676 0.18153,-0.26042 0.27428,-0.42844 0.0927,-0.16803 0.19753,-0.32947 0.23281,-0.35876 0.0354,-0.0293 0.10236,-0.13212 0.1491,-0.22861 0.0467,-0.0964 0.18016,-0.29991 0.29664,-0.45213 0.36922,-0.48249 0.86783,-1.15427 1.03989,-1.40103 0.0915,-0.13118 0.22554,-0.30892 0.29806,-0.39514 0.0725,-0.0861 0.18935,-0.23445 0.25962,-0.32939 0.0703,-0.0949 0.24023,-0.29268 0.3777,-0.43939 0.13757,-0.14675 0.28111,-0.31465 0.31919,-0.3732 0.095,-0.14613 0.25896,-0.33201 0.71218,-0.80747 0.21289,-0.22336 0.55781,-0.58675 0.76647,-0.80754 0.49143,-0.52001 0.45202,-0.48117 0.88941,-0.87603 0.20754,-0.18737 0.39805,-0.35994 0.42335,-0.38351 0.0252,-0.0235 0.1131,-0.0975 0.19503,-0.16438 0.082,-0.0668 0.22569,-0.19192 0.31936,-0.27793 0.19993,-0.18359 0.88739,-0.7637 1.1923,-1.0061 0.58753,-0.46713 0.71463,-0.56336 0.97938,-0.74162 0.14053,-0.0946 0.38004,-0.26318 0.53227,-0.37459 0.15221,-0.11139 0.39227,-0.27929 0.53342,-0.37308 0.14115,-0.0938 0.32498,-0.2232 0.40853,-0.28759 0.0835,-0.0643 0.17144,-0.11716 0.19529,-0.11716 0.0238,0 0.11576,-0.0575 0.20409,-0.12775 0.0883,-0.0703 0.18423,-0.12775 0.21291,-0.12775 0.0287,0 0.12448,-0.0575 0.21292,-0.12775 0.0883,-0.0703 0.17854,-0.12775 0.2003,-0.12775 0.0218,0 0.10064,-0.0466 0.17518,-0.10345 0.0746,-0.0569 0.2218,-0.14333 0.3271,-0.19224 0.10594,-0.0488 0.3066,-0.1544 0.44713,-0.23447 0.14021,-0.0801 0.31906,-0.17642 0.39664,-0.21402 0.0779,-0.0375 0.21936,-0.1251 0.31502,-0.19436 0.095,-0.0693 0.19505,-0.12604 0.22091,-0.1262 0.0265,-9e-5 0.2754,-0.11513 0.5551,-0.25548 0.2795,-0.14037 0.5297,-0.25533 0.5559,-0.25533 0.027,0 0.1122,-0.048 0.192,-0.10641 0.079,-0.0586 0.176,-0.1064 0.2148,-0.1064 0.039,0 0.1558,-0.0449 0.2582,-0.0997 0.1028,-0.0548 0.2583,-0.12308 0.3449,-0.15159 0.087,-0.0287 0.2232,-0.0966 0.3036,-0.15127 0.081,-0.0545 0.2465,-0.12074 0.3689,-0.14707 0.1231,-0.0262 0.2733,-0.0829 0.335,-0.12588 0.062,-0.043 0.2049,-0.10096 0.3183,-0.12869 0.1137,-0.0277 0.257,-0.0876 0.3194,-0.13273 0.062,-0.0452 0.2084,-0.10298 0.3246,-0.12838 0.1169,-0.0254 0.2697,-0.0819 0.3408,-0.12557 0.072,-0.0436 0.2425,-0.10001 0.3812,-0.12541 0.1386,-0.0254 0.2982,-0.0763 0.3542,-0.1131 0.056,-0.0368 0.237,-0.095 0.402,-0.12947 0.165,-0.0344 0.3703,-0.0985 0.4562,-0.14224 0.086,-0.0438 0.2667,-0.10017 0.4017,-0.1251 0.1356,-0.0249 0.3068,-0.0726 0.3819,-0.10609 0.1695,-0.0756 0.4999,-0.1544 0.6462,-0.1544 0.061,0 0.222,-0.0471 0.3587,-0.10453 0.1371,-0.0575 0.3899,-0.12214 0.5628,-0.1438 0.1731,-0.0217 0.3883,-0.0701 0.4783,-0.10781 0.09,-0.0377 0.339,-0.0969 0.5536,-0.13164 0.2143,-0.0346 0.4856,-0.0925 0.6027,-0.12869 0.1169,-0.0361 0.538,-0.0949 0.9351,-0.1304 0.4169,-0.0374 0.7346,-0.0847 0.7515,-0.11217 0.017,-0.0262 0.062,-0.0351 0.1029,-0.0196 0.051,0.0198 0.067,0.0109 0.05,-0.0323 -0.016,-0.0372 0.016,-0.0696 0.07,-0.0851 0.051,-0.014 1.9075,-0.0252 4.1254,-0.0254 4.0014,-6.6e-4 4.1978,0.005 4.2921,0.13289 0.016,0.0159 0.031,0.029 0.044,0.0293 0.016,3.2e-4 0.068,0.0109 0.1277,0.0238 0.059,0.0125 0.4906,0.0524 0.9602,0.0879 0.4696,0.0357 0.9103,0.0829 0.9795,0.105 0.068,0.0221 0.346,0.0723 0.6154,0.11155 0.2692,0.0391 0.6526,0.11576 0.8515,0.17022 0.1991,0.0545 0.4769,0.11186 0.6174,0.12744 0.1402,0.0156 0.3418,0.0647 0.4472,0.10906 0.1059,0.0444 0.3257,0.10843 0.4898,0.14255 0.1639,0.034 0.365,0.0897 0.4471,0.1237 0.083,0.034 0.2634,0.0852 0.4032,0.11404 0.1402,0.0287 0.3203,0.0876 0.401,0.13086 0.081,0.0433 0.2538,0.10049 0.3845,0.12713 0.1309,0.0266 0.2965,0.0843 0.3684,0.12791 0.072,0.0438 0.2502,0.10749 0.3964,0.14161 0.1464,0.0341 0.31,0.091 0.3639,0.12619 0.054,0.0352 0.2011,0.0924 0.3273,0.12697 0.2149,0.0587 0.3365,0.10361 0.9,0.33141 0.1231,0.0497 0.3099,0.11809 0.4152,0.15205 0.201,0.0647 0.605,0.24376 0.9476,0.41997 0.1106,0.0572 0.224,0.10407 0.2506,0.10407 0.026,0 0.3024,0.12448 0.6132,0.27678 0.3107,0.15221 0.5782,0.27679 0.5944,0.27679 0.017,0 0.081,0.0355 0.1433,0.079 0.062,0.0435 0.1613,0.0907 0.2203,0.10485 0.059,0.014 0.1932,0.0809 0.298,0.14801 0.2612,0.1671 0.7335,0.4432 1.049,0.61304 0.7977,0.42952 2.3978,1.47555 3.2509,2.12531 0.059,0.0446 0.2272,0.17206 0.3747,0.28328 0.6258,0.4717 1.5262,1.22128 2.033,1.69259 0.051,0.0469 0.2142,0.19899 0.3642,0.33813 1.0198,0.94582 1.7083,1.65756 2.3506,2.42969 0.2339,0.28105 0.4848,0.57032 0.5576,0.64286 0.073,0.0724 0.1994,0.21401 0.2814,0.31439 0.082,0.10033 0.2076,0.25182 0.279,0.33653 0.158,0.18722 0.6096,0.78104 0.7077,0.93066 0.039,0.0597 0.087,0.12012 0.1075,0.13429 0.02,0.014 0.1512,0.19515 0.2908,0.40209 0.1402,0.20694 0.293,0.42961 0.3399,0.49486 0.2156,0.3004 0.4358,0.62313 0.4513,0.66184 0.016,0.0234 0.1122,0.18253 0.23,0.3536 0.2757,0.40276 0.4681,0.71645 0.5534,0.90198 0.037,0.0816 0.1012,0.18703 0.1433,0.23419 0.041,0.0472 0.1581,0.24863 0.2595,0.4477 0.1013,0.19908 0.2202,0.40764 0.2636,0.4635 0.044,0.0559 0.08,0.12479 0.08,0.1533 0,0.0285 0.054,0.12775 0.1231,0.22075 0.067,0.093 0.1371,0.2156 0.1542,0.27254 0.017,0.0569 0.084,0.20175 0.148,0.32184 0.064,0.12012 0.1371,0.27337 0.1639,0.34066 0.026,0.0673 0.067,0.15112 0.09,0.18618 0.023,0.0352 0.1199,0.23634 0.2167,0.44711 0.097,0.21079 0.221,0.47231 0.2779,0.58114 0.056,0.1089 0.1028,0.22456 0.1028,0.25717 0,0.0326 0.065,0.18307 0.1434,0.33438 0.079,0.15128 0.1576,0.34217 0.1751,0.42415 0.017,0.0819 0.056,0.17777 0.087,0.2129 0.031,0.0352 0.084,0.16208 0.1184,0.2821 0.036,0.11996 0.1137,0.31148 0.1745,0.42547 0.061,0.11404 0.1106,0.25505 0.1106,0.31345 0,0.0584 0.045,0.20226 0.1013,0.31969 0.1293,0.27088 0.3067,0.80238 0.4055,1.21421 0.042,0.17564 0.1153,0.40559 0.1642,0.51098 0.048,0.10532 0.1,0.26826 0.1137,0.36194 0.016,0.0936 0.064,0.2853 0.1075,0.42583 0.045,0.14052 0.1013,0.38004 0.1278,0.53225 0.025,0.15221 0.083,0.39176 0.1262,0.53228 0.044,0.14053 0.1028,0.38963 0.1293,0.55357 0.028,0.16394 0.095,0.44412 0.1496,0.62262 0.054,0.17853 0.1121,0.46595 0.1277,0.63874 0.016,0.17279 0.054,0.44758 0.089,0.61063 0.1013,0.48989 0.1859,1.115 0.1859,1.35972 0,0.12666 0.037,0.48604 0.082,0.79868 0.1309,0.90181 0.1356,0.99443 0.148,2.65495 0.016,1.39274 -0.025,2.95113 -0.076,3.25753 -0.016,0.0586 -0.039,0.23348 -0.065,0.38873 -0.026,0.15533 -0.058,0.44269 -0.07,0.63872 -0.055,0.82829 -0.1106,1.35087 -0.1705,1.57962 -0.034,0.13414 -0.092,0.44069 -0.1262,0.68131 -0.034,0.24064 -0.093,0.52309 -0.1293,0.62769 -0.037,0.10454 -0.084,0.35074 -0.1075,0.54701 -0.023,0.19625 -0.081,0.47475 -0.1293,0.61888 -0.048,0.14411 -0.1059,0.38609 -0.1277,0.53769 -0.022,0.15159 -0.086,0.41988 -0.1418,0.59616 -0.056,0.17628 -0.1137,0.40905 -0.1277,0.51725 -0.016,0.10828 -0.064,0.27111 -0.1107,0.36195 -0.047,0.0908 -0.1137,0.28975 -0.148,0.44197 -0.034,0.15221 -0.092,0.33765 -0.1277,0.41203 -0.034,0.0745 -0.083,0.23726 -0.106,0.36195 -0.023,0.12464 -0.089,0.32251 -0.1448,0.4396 -0.056,0.11716 -0.1153,0.26974 -0.1309,0.33918 -0.016,0.0695 -0.064,0.20875 -0.1106,0.30953 -0.047,0.1008 -0.12,0.29308 -0.1631,0.42729 -0.168,0.51407 -0.3422,0.96013 -0.401,1.02654 -0.033,0.038 -0.09,0.15533 -0.1278,0.26077 -0.037,0.10547 -0.1153,0.28742 -0.1736,0.40453 -0.059,0.11716 -0.1074,0.2441 -0.1074,0.2822 0,0.0382 -0.028,0.0915 -0.061,0.11872 -0.033,0.0271 -0.092,0.14925 -0.1324,0.27136 -0.039,0.12214 -0.097,0.25071 -0.1278,0.28585 -0.03,0.0352 -0.097,0.15898 -0.1464,0.27522 -0.051,0.11622 -0.1169,0.24079 -0.1465,0.2768 -0.031,0.036 -0.09,0.16123 -0.1324,0.27832 -0.042,0.11716 -0.098,0.24165 -0.1262,0.27678 -0.026,0.0352 -0.083,0.13103 -0.1246,0.21291 -0.042,0.082 -0.1418,0.26401 -0.22,0.40453 -0.079,0.14053 -0.194,0.35615 -0.2553,0.47914 -0.061,0.12308 -0.1371,0.24877 -0.1672,0.27947 -0.031,0.0307 -0.097,0.13117 -0.148,0.22345 -0.1402,0.25615 -0.3501,0.59095 -0.3861,0.61476 -0.03,0.0195 -0.2281,0.33044 -0.3838,0.60108 -0.1044,0.18192 -0.3296,0.52251 -0.3906,0.59153 -0.031,0.0354 -0.1899,0.24609 -0.3526,0.46841 -0.26,0.35525 -0.4642,0.61099 -0.867,1.08552 -0.1,0.11778 -0.7685,0.86688 -0.8171,0.9155 -0.016,0.0125 -0.1262,0.14582 -0.2543,0.29808 -0.6049,0.71864 -2.3884,2.50146 -3.4079,3.40654 -0.1714,0.15221 -0.3326,0.29624 -0.358,0.32001 -0.1943,0.18102 -0.8493,0.7475 -0.9842,0.85099 -0.092,0.0703 -0.2246,0.17627 -0.2957,0.23556 -0.1231,0.10282 -0.2746,0.22031 -0.6141,0.47665 -0.1496,0.11295 -0.2473,0.18329 -0.6433,0.4633 -0.1044,0.0745 -0.2106,0.15802 -0.2341,0.18575 -0.023,0.0277 -0.1865,0.13336 -0.3623,0.23479 -0.3116,0.1799 -0.4388,0.25692 -0.7877,0.47645 -0.093,0.0589 -0.314,0.18949 -0.4898,0.2901 -0.1755,0.10064 -0.3675,0.21589 -0.4265,0.25616 -0.059,0.0402 -0.1465,0.0857 -0.1948,0.10095 -0.048,0.0156 -0.1277,0.0657 -0.1779,0.11202 -0.05,0.0463 -0.1919,0.1318 -0.3162,0.1901 -0.1247,0.0583 -0.2546,0.12245 -0.2897,0.14255 -0.064,0.0368 -0.1681,0.0918 -0.6814,0.35977 -0.1527,0.0794 -0.315,0.16498 -0.3619,0.18996 -0.1943,0.1036 -0.6461,0.30618 -0.7452,0.3341 -0.059,0.0165 -0.16,0.0748 -0.2254,0.12946 -0.065,0.0547 -0.1979,0.12074 -0.2943,0.14676 -0.097,0.026 -0.2153,0.0726 -0.2641,0.10391 -0.048,0.0312 -0.1849,0.0847 -0.3019,0.11887 -0.1168,0.0341 -0.2801,0.0999 -0.3621,0.14598 -0.083,0.0461 -0.2257,0.10874 -0.3193,0.13928 -0.093,0.0305 -0.2153,0.0905 -0.2705,0.13336 -0.054,0.0428 -0.17,0.09 -0.2555,0.105 -0.086,0.0156 -0.2179,0.0629 -0.2946,0.10656 -0.076,0.0438 -0.2489,0.11062 -0.3832,0.14863 -0.134,0.038 -0.3037,0.10345 -0.3769,0.14536 -0.073,0.0419 -0.2169,0.0897 -0.3194,0.1064 -0.1028,0.0167 -0.2718,0.0673 -0.3762,0.11264 -0.1044,0.0453 -0.322,0.11248 -0.4838,0.14925 -0.1617,0.0368 -0.3732,0.10158 -0.4703,0.14395 -0.097,0.0424 -0.272,0.0908 -0.389,0.1075 -0.1169,0.0167 -0.2881,0.0682 -0.3798,0.11451 -0.092,0.0463 -0.3601,0.11902 -0.5963,0.16162 -0.236,0.0425 -0.477,0.0957 -0.5356,0.11793 -0.059,0.0223 -0.279,0.0629 -0.4898,0.0905 -0.2106,0.0276 -0.5555,0.0964 -0.7663,0.15299 -0.2108,0.0566 -0.5654,0.12448 -0.7877,0.15096 -0.2227,0.0265 -0.4813,0.0751 -0.5751,0.10781 -0.093,0.0329 -0.678,0.10828 -1.2986,0.16765 -0.6207,0.0594 -1.3201,0.12822 -1.5542,0.15299 -0.5212,0.0552 -4.8709,0.083 -5.5784,0.0357 z m 6.3447,-1.35296 c 0.3513,-0.0495 0.8542,-0.1103 1.1173,-0.13507 0.2632,-0.0248 0.5889,-0.0732 0.7239,-0.10781 0.1355,-0.0346 0.4466,-0.0902 0.6925,-0.12354 0.246,-0.0335 0.5857,-0.11015 0.7551,-0.1706 0.1693,-0.0604 0.3544,-0.10983 0.4113,-0.10983 0.058,0 0.2248,-0.0575 0.3734,-0.12775 0.148,-0.0703 0.292,-0.12775 0.3189,-0.12775 0.1387,-1.1e-4 1.1138,-0.713 1.2328,-0.90133 0.054,-0.0858 0.12,-0.16962 0.148,-0.18617 0.1574,-0.0974 0.2817,-0.82734 0.315,-1.85068 0.134,-4.11188 0.148,-7.10645 0.1741,-35.23649 0.02,-23.05027 0.019,-24.1074 -0.055,-24.24048 -0.1246,-0.23023 -1.162,-1.28567 -1.3734,-1.39835 -0.106,-0.0566 -0.2214,-0.11965 -0.2565,-0.14037 -0.46,-0.2715 -0.5967,-0.34309 -0.704,-0.36901 -0.07,-0.0168 -0.2125,-0.0732 -0.318,-0.12557 -0.1059,-0.0523 -0.2781,-0.10548 -0.3835,-0.1181 -0.106,-0.0125 -0.3503,-0.0634 -0.5436,-0.11279 -0.1933,-0.0494 -0.5475,-0.10843 -0.7868,-0.13118 -0.2394,-0.0227 -0.493,-0.0511 -0.5636,-0.0628 -0.9236,-0.15346 -1.2526,-0.1798 -2.6832,-0.21498 -0.5855,-0.014 -1.1509,-0.0347 -1.2562,-0.0452 -0.263,-0.0262 -2.1905,-0.0252 -2.5209,8.7e-4 -0.148,0.0125 -0.5652,0.0321 -0.9284,0.045 -1.0604,0.038 -1.368,0.0661 -1.6392,0.15002 -0.1402,0.0435 -0.3609,0.0899 -0.4898,0.10314 -0.1293,0.014 -0.3396,0.0354 -0.4683,0.0492 -0.1293,0.014 -0.3876,0.0698 -0.5749,0.12448 -0.1874,0.0547 -0.4173,0.11856 -0.511,0.14177 -0.3044,0.0757 -0.8924,0.29464 -1.1948,0.44504 -0.5935,0.29515 -0.7239,0.378 -1.0352,0.6577 -0.3669,0.32958 -0.6252,0.70244 -0.6649,0.95979 -0.016,0.0989 -0.047,0.23934 -0.069,0.31202 -0.1433,0.46539 -0.183,1.695 -0.2338,7.34097 -0.016,1.5106 -0.031,3.48427 -0.041,4.38593 -0.04,4.13833 0,40.18894 0.044,41.51732 0.016,0.31617 0.033,1.31258 0.047,2.21426 0.016,0.90167 0.033,1.78311 0.041,1.95877 0,0.17564 0.026,0.65469 0.042,1.06455 0.016,0.40983 0.045,0.81223 0.065,0.89421 0.02,0.0819 0.05,0.264 0.066,0.40453 0.016,0.14052 0.034,0.26564 0.042,0.27806 0,0.0125 0.017,0.15613 0.023,0.31936 0.016,0.31001 0.058,0.50813 0.1465,0.61616 0.03,0.0352 0.076,0.13725 0.1043,0.22688 0.058,0.17854 0.4095,0.47285 0.7675,0.6414 0.1059,0.0495 0.2586,0.13071 0.3405,0.1801 0.083,0.0494 0.2431,0.11263 0.3579,0.14037 0.1153,0.0279 0.2648,0.0796 0.3335,0.11513 0.069,0.0355 0.2359,0.0824 0.3716,0.10438 0.1356,0.0218 0.3351,0.0788 0.4432,0.12666 0.1075,0.0478 0.3644,0.10547 0.5696,0.12806 0.2049,0.0226 0.5451,0.0781 0.7559,0.12354 0.2108,0.0453 0.5846,0.10329 0.8304,0.12884 0.246,0.0254 0.6484,0.0746 0.8942,0.10937 0.8929,0.12588 1.2546,0.1385 3.6621,0.12822 2.2291,-0.009 2.5056,-0.0184 3.0872,-0.10049 z m -4.1517,-3.25571 c -0.016,-0.0125 -0.1075,-0.0316 -0.2141,-0.0442 -0.1059,-0.0125 -0.2689,-0.0519 -0.3619,-0.0874 -0.094,-0.0354 -0.3275,-0.0846 -0.521,-0.10905 -0.1933,-0.0245 -0.4329,-0.0815 -0.5322,-0.12635 -0.1,-0.045 -0.2667,-0.10469 -0.3721,-0.13258 -0.106,-0.0279 -0.2216,-0.0774 -0.2582,-0.11015 -0.037,-0.0326 -0.1324,-0.0816 -0.213,-0.10874 -0.081,-0.0271 -0.2287,-0.10407 -0.3295,-0.17091 -0.1012,-0.0668 -0.2444,-0.15283 -0.3192,-0.19126 -0.3156,-0.16158 -1.1905,-0.92339 -1.5839,-1.37911 -0.1309,-0.15097 -0.4473,-0.62145 -0.4473,-0.66398 0,-0.0223 -0.051,-0.10204 -0.3754,-0.5767 -0.075,-0.10921 -0.1356,-0.22418 -0.1356,-0.2555 -1e-4,-0.0313 -0.067,-0.18994 -0.1495,-0.35254 -0.083,-0.16259 -0.1496,-0.32734 -0.1496,-0.36607 0,-0.0388 -0.037,-0.11357 -0.083,-0.16617 -0.045,-0.0527 -0.1028,-0.19449 -0.1293,-0.31523 -0.025,-0.12074 -0.075,-0.36323 -0.1106,-0.53889 -0.1044,-0.50584 -0.1386,-1.56684 -0.1721,-5.28014 -0.047,-5.19839 -0.037,-8.10578 0.031,-9.00027 0.019,-0.25443 0.073,-0.58019 0.12,-0.72389 0.047,-0.14364 0.098,-0.34329 0.1137,-0.4435 0.016,-0.10267 0.081,-0.24925 0.1496,-0.33587 0.067,-0.0844 0.1215,-0.1867 0.1215,-0.2271 0,-0.0843 0.1753,-0.32123 0.4368,-0.5905 0.2001,-0.20596 0.755,-0.49335 1.0323,-0.53456 0.094,-0.014 0.2661,-0.0446 0.3833,-0.0681 0.1168,-0.0235 0.2608,-0.0524 0.3192,-0.0639 0.6655,-0.13211 1.917,-0.17464 5.2164,-0.17737 2.8285,-0.003 3.2783,0.0221 3.9624,0.21548 0.7339,0.20748 1.1618,0.44119 1.5729,0.85949 0.2918,0.29665 0.6951,0.77479 0.7609,0.90178 0.065,0.12479 0.07,0.62383 0.065,6.00325 0,3.22696 -0.02,6.17378 -0.039,6.5485 -0.017,0.37473 -0.045,1.11245 -0.061,1.63941 -0.037,1.24545 -0.059,1.52136 -0.1309,1.71043 -0.033,0.0858 -0.09,0.28712 -0.1277,0.44711 -0.037,0.16 -0.1122,0.35799 -0.1681,0.43995 -0.054,0.082 -0.1137,0.21068 -0.1293,0.28602 -0.016,0.0752 -0.075,0.20552 -0.1324,0.28931 -0.056,0.0838 -0.1029,0.16676 -0.1029,0.18439 0,0.0299 -0.2575,0.44313 -0.4778,0.76691 -0.1527,0.22331 -0.6901,0.8062 -0.9447,1.02317 -0.4816,0.41047 -0.6744,0.55868 -0.7271,0.55868 -0.03,0 -0.08,0.0308 -0.1106,0.0684 -0.031,0.0375 -0.1527,0.11482 -0.2712,0.17168 -0.388,0.1867 -0.837,0.42904 -0.886,0.47818 -0.027,0.0265 -0.087,0.0485 -0.1356,0.0486 -0.048,1.5e-4 -0.1896,0.048 -0.3145,0.10609 -0.1262,0.0587 -0.4193,0.1357 -0.66,0.17323 -0.238,0.0372 -0.5192,0.0966 -0.6245,0.13227 -0.1857,0.0628 -1.7376,0.13881 -1.7884,0.0877 z m 1.4478,-1.22027 c 0.2693,-0.045 0.5703,-0.12152 0.6686,-0.17031 0.098,-0.0488 0.223,-0.0893 0.2769,-0.09 0.054,-7.9e-4 0.1936,-0.0366 0.3106,-0.0796 0.1169,-0.043 0.3088,-0.11201 0.426,-0.15346 0.1168,-0.0414 0.2427,-0.10111 0.2791,-0.13258 0.037,-0.0315 0.1434,-0.10064 0.2384,-0.15376 0.5833,-0.32762 1.3537,-0.97859 1.707,-1.44252 0.3594,-0.47171 0.7679,-1.14996 0.8429,-1.39976 0.017,-0.0581 0.068,-0.15517 0.1137,-0.21563 0.081,-0.10905 0.1402,-0.39 0.2775,-1.29684 0.062,-0.41958 0.07,-1.12967 0.073,-6.81309 v -6.3447 l -0.12,-0.51099 c -0.2405,-1.02961 -0.5049,-1.38098 -1.2007,-1.59621 -0.093,-0.029 -0.2181,-0.084 -0.2767,-0.12245 -0.097,-0.0631 -0.4683,-0.071 -3.8613,-0.083 -4.0701,-0.014 -4.7222,0.006 -5.2511,0.17545 -0.5568,0.17681 -0.6981,0.28606 -0.9368,0.72355 -0.1586,0.29109 -0.1901,0.54611 -0.2348,1.90336 -0.016,0.48011 -0.036,0.95915 -0.045,1.06455 -0.023,0.25942 -0.023,7.88613 2e-4,8.15442 0.016,0.11716 0.03,0.57698 0.044,1.02196 0.027,0.85093 0.053,1.5078 0.09,2.32072 0.03,0.60884 0.1832,1.26011 0.4088,1.72209 0.09,0.18601 0.1911,0.36805 0.2231,0.40454 0.031,0.0364 0.092,0.13336 0.134,0.21538 0.1757,0.34652 0.8344,1.08493 1.339,1.50086 0.4232,0.34912 1.0726,0.77465 1.3108,0.85923 0.087,0.031 0.2261,0.0949 0.308,0.14178 0.083,0.0469 0.2419,0.10749 0.3554,0.1346 0.1137,0.0273 0.2513,0.079 0.3063,0.11498 0.1464,0.096 0.8763,0.2206 1.3184,0.22523 0.2108,0.003 0.6036,-0.0329 0.8729,-0.0777 z m -3.6574,-4.35184 c -0.409,-0.0787 -0.6058,-0.1772 -0.8588,-0.43007 -0.2193,-0.21894 -0.5069,-0.63603 -0.5505,-0.79827 -0.059,-0.21792 -0.016,-0.67385 0.087,-0.83184 0.044,-0.0703 0.1371,-0.24271 0.2069,-0.38323 0.081,-0.16057 0.2673,-0.39936 0.5027,-0.64274 0.3155,-0.32606 0.4554,-0.43261 0.8851,-0.67423 0.2806,-0.15783 0.6352,-0.32555 0.7877,-0.3727 0.1527,-0.0472 0.3446,-0.1114 0.4265,-0.14271 0.1935,-0.0738 0.5096,-0.13632 0.8339,-0.1648 0.3418,-0.0299 0.3823,-0.0491 0.4625,-0.21792 0.061,-0.12666 0.068,-0.50156 0.076,-3.22228 0,-1.69348 0.022,-3.29942 0.039,-3.56874 0.017,-0.26934 0.034,-0.65541 0.04,-0.85794 0.019,-0.78624 0.1433,-1.13179 0.528,-1.46777 0.1573,-0.13772 0.2494,-0.18662 0.3505,-0.18662 0.1215,0 0.1418,0.0181 0.1846,0.15967 0.027,0.0879 0.062,0.37047 0.083,0.62809 0.047,0.62752 0.1231,0.98868 0.2335,1.11735 0.1184,0.13757 0.473,0.16494 0.9203,0.0712 0.1742,-0.0365 0.463,-0.0922 0.6422,-0.12401 0.179,-0.0318 0.4089,-0.0954 0.511,-0.14146 0.1012,-0.046 0.3002,-0.10719 0.4407,-0.13601 0.1402,-0.0288 0.3585,-0.0978 0.4844,-0.15361 0.3726,-0.16479 0.6105,-0.11934 0.5286,0.10095 -0.089,0.23793 -0.836,0.97026 -1.46,1.43006 -0.1293,0.0949 -0.2821,0.2154 -0.3407,0.2677 -0.1837,0.16417 -0.642,0.40004 -1.0418,0.53614 -0.5921,0.20168 -0.7394,0.27518 -0.8218,0.41055 -0.072,0.11591 -0.076,0.32973 -0.09,2.97177 -0.016,1.56581 -0.019,2.93316 -0.025,3.03854 -0.015,0.10531 -0.025,0.53653 -0.04,0.95809 -0.017,0.42156 -0.047,0.89711 -0.07,1.05676 -0.055,0.39182 -0.2449,0.76086 -0.4694,0.91244 -0.4734,0.31968 -0.6665,0.442 -0.7833,0.49635 -0.2963,0.13788 -0.7399,0.27773 -0.958,0.30201 -0.1293,0.014 -0.346,0.0548 -0.4828,0.0899 -0.3102,0.0796 -0.7401,0.0692 -1.2586,-0.0307 z m 2.3125,-36.51927 c -0.3631,-0.0714 -0.5413,-0.12821 -0.6409,-0.20396 -0.076,-0.0578 -0.1567,-0.105 -0.1802,-0.105 -0.075,0 -0.6604,-0.48966 -0.8229,-0.6887 -0.6723,-0.82359 -0.8194,-1.19118 -0.8393,-2.09843 -0.016,-0.67201 0.1695,-1.28817 0.4909,-1.64138 0.053,-0.0586 0.1913,-0.21698 0.3068,-0.35207 0.4357,-0.50988 0.7473,-0.72118 1.3998,-0.94909 0.3781,-0.13211 0.461,-0.14566 0.8855,-0.1452 0.4864,6.4e-4 0.5817,0.0164 1.0433,0.17295 0.4508,0.15283 0.7856,0.34098 1.0521,0.59112 0.6135,0.57572 0.9519,1.10456 1.0564,1.65093 0.1184,0.61616 0.059,1.69118 -0.1059,1.92691 -0.04,0.0586 -0.1,0.1831 -0.1293,0.27678 -0.1262,0.39106 -0.857,1.11987 -1.2361,1.23368 -0.058,0.0173 -0.1907,0.0796 -0.2961,0.13881 -0.1169,0.0657 -0.3404,0.13149 -0.5747,0.16936 -0.7854,0.12698 -0.8742,0.12853 -1.4089,0.0234 z m 1.1146,-1.04898 c 0.2687,-0.0576 0.5118,-0.1991 0.8924,-0.51898 0.2765,-0.2325 0.4357,-0.4646 0.509,-0.7426 0.033,-0.12214 0.09,-0.28873 0.1293,-0.37012 0.095,-0.19903 0.065,-0.49894 -0.09,-0.92907 -0.1662,-0.45897 -0.3519,-0.70169 -0.7604,-0.99338 -0.4638,-0.33127 -0.4269,-0.31323 -0.8105,-0.39478 -0.3293,-0.07 -0.3538,-0.0695 -0.7031,0.0125 -0.262,0.0614 -0.3972,0.11747 -0.4898,0.20381 -0.07,0.0654 -0.1495,0.12635 -0.1762,0.13507 -0.1044,0.0341 -0.4451,0.38803 -0.5872,0.61024 -0.1593,0.24919 -0.3223,0.79369 -0.3223,1.07725 0,0.24372 0.1496,0.79099 0.2758,1.00535 0.1075,0.18226 0.4826,0.53901 0.7816,0.74193 0.2894,0.19641 0.8709,0.26655 1.3524,0.16316 z m -5.8375,-10.77519 c -0.5106,-0.12105 -0.8337,-0.29794 -1.1856,-0.64918 -0.2208,-0.22043 -0.3323,-0.37728 -0.4608,-0.64786 l -0.1696,-0.35703 0.016,-0.57977 c 0.016,-0.52124 0.023,-0.59339 0.1106,-0.71459 0.053,-0.0742 0.1075,-0.19112 0.1216,-0.25993 0.031,-0.15928 0.4863,-0.70381 0.763,-0.91401 0.2102,-0.15971 0.5249,-0.30152 0.767,-0.3457 0.5336,-0.0974 0.5545,-0.0975 0.9617,-0.006 0.2233,0.0497 0.4716,0.1318 0.5516,0.18223 0.081,0.0505 0.2225,0.13258 0.3161,0.18248 0.094,0.05 0.2948,0.22127 0.4472,0.38077 0.2249,0.23578 0.3027,0.35646 0.4162,0.64542 0.1278,0.32447 0.1387,0.39435 0.1371,0.80254 0,0.29562 -0.025,0.5048 -0.069,0.61742 -0.037,0.0936 -0.1028,0.27555 -0.148,0.40418 -0.045,0.12868 -0.12,0.27232 -0.1653,0.31936 -0.045,0.047 -0.1659,0.19091 -0.267,0.31972 -0.1013,0.12884 -0.2599,0.27656 -0.3524,0.32833 -0.092,0.0517 -0.2161,0.12105 -0.2747,0.15408 -0.1309,0.0732 -0.7249,0.2106 -0.9581,0.22129 -0.094,0.005 -0.3427,-0.033 -0.5535,-0.083 z m 0.9913,-1.0264 c 0.1812,-0.0405 0.4929,-0.35711 0.5547,-0.56325 0.134,-0.44735 0.098,-0.94709 -0.089,-1.22826 -0.1633,-0.24622 -0.7505,-0.51684 -0.9995,-0.46059 -0.6402,0.14473 -0.8566,0.25806 -0.9678,0.50683 -0.2075,0.46457 -0.2212,0.65586 -0.078,1.10775 0.1356,0.43091 0.3227,0.57742 0.864,0.67778 0.2588,0.048 0.3428,0.0433 0.7161,-0.0402 z m 3.9706,0.99502 c -0.1433,-0.026 -0.2372,-0.0813 -0.3806,-0.22459 l -0.19,-0.1901 -0.058,-0.54504 c -0.082,-0.78839 -0.093,-1.49373 -0.031,-2.08313 0.053,-0.50421 0.1168,-0.71097 0.2511,-0.8229 0.037,-0.0304 0.067,-0.081 0.067,-0.11263 0,-0.0315 0.109,-0.13928 0.2415,-0.23964 0.2318,-0.17505 0.2538,-0.18235 0.5446,-0.18235 0.2708,0 0.3294,0.0159 0.5506,0.1491 0.3817,0.22973 0.432,0.3102 0.492,0.78641 0.051,0.4019 0.067,1.63681 0.026,1.99291 -0.016,0.0991 -0.033,0.38904 -0.048,0.64439 -0.026,0.46007 -0.03,0.46579 -0.1829,0.6303 -0.1013,0.10781 -0.2149,0.18007 -0.3255,0.20607 -0.1958,0.0461 -0.6786,0.0416 -0.9569,-0.009 z m 4.5763,-0.0321 c -0.4629,-0.12215 -1.094,-0.64175 -1.3214,-1.08791 -0.061,-0.11793 -0.1418,-0.27204 -0.1817,-0.34231 -0.058,-0.10282 -0.073,-0.2406 -0.073,-0.70624 0,-0.55244 0.016,-0.58598 0.1106,-0.74517 0.061,-0.0918 0.1371,-0.23375 0.1684,-0.31573 0.031,-0.082 0.084,-0.17605 0.1169,-0.20906 0.033,-0.033 0.1028,-0.12884 0.1559,-0.21291 0.3088,-0.48623 0.8424,-0.75489 1.6626,-0.83685 0.3415,-0.0341 0.8785,0.0935 1.1967,0.28452 0.5571,0.33446 1.1123,0.98935 1.2106,1.42789 0.048,0.21341 0.059,0.92725 0.017,1.14288 -0.016,0.0701 -0.1013,0.26619 -0.1946,0.43583 -0.2063,0.37341 -0.656,0.79703 -1.0873,1.02391 l -0.2915,0.1533 -0.6811,0.0109 c -0.3748,0.006 -0.7389,-0.005 -0.8092,-0.0229 z m 1.4134,-1.02875 c 0.054,-0.0204 0.1649,-0.14209 0.2469,-0.27026 0.193,-0.30156 0.263,-0.72208 0.1885,-1.13188 -0.058,-0.31624 -0.087,-0.38383 -0.2695,-0.61119 -0.1744,-0.21774 -0.3034,-0.27814 -0.6561,-0.30741 -0.4438,-0.0368 -0.6196,0.0269 -0.9287,0.33729 -0.2851,0.2863 -0.3989,0.55394 -0.3989,0.93758 0,0.44619 0.3374,0.95633 0.6964,1.05302 0.4161,0.11201 0.8144,0.10952 1.1214,-0.006 z m -17.5993,55.8839 c 0.2123,-0.1089 0.5083,-0.31892 0.6059,-0.42993 0.081,-0.0927 0.2349,-0.50456 0.2894,-0.77578 0.016,-0.0586 0.033,-0.50887 0.045,-1.00069 0.016,-0.49181 0.033,-1.08582 0.044,-1.32004 0.056,-1.26466 0.086,-11.06308 0.083,-27.61433 0,-20.61625 -0.036,-26.63719 -0.1511,-28.25306 -0.089,-1.24477 -0.23,-1.51108 -0.8831,-1.66782 -0.2787,-0.067 -0.3388,-0.0673 -0.8098,-0.006 -0.3538,0.0463 -0.5805,0.10048 -0.7445,0.17808 -0.1293,0.0614 -0.2515,0.11155 -0.2705,0.11171 -0.019,7e-5 -0.1674,0.0671 -0.3301,0.14909 -0.1626,0.0818 -0.3206,0.14894 -0.3513,0.14894 -0.031,0 -0.1464,0.0463 -0.258,0.10298 -0.1106,0.0566 -0.2692,0.13382 -0.3513,0.1717 -0.083,0.0378 -0.197,0.0963 -0.2555,0.12977 -0.1262,0.0723 -0.285,0.15252 -0.5748,0.2901 -0.59512,0.28252 -0.75465,0.3678 -0.85171,0.45536 -0.0467,0.0422 -0.15267,0.10843 -0.23415,0.14707 -0.20238,0.0953 -0.39634,0.20514 -0.59685,0.33785 -0.0919,0.0611 -0.18477,0.11108 -0.20547,0.11108 -0.0207,0 -0.10688,0.0527 -0.19164,0.11715 -0.0846,0.0643 -0.28085,0.19376 -0.4359,0.28744 -0.15501,0.0936 -0.34481,0.22302 -0.4217,0.28743 -0.077,0.0643 -0.15939,0.11715 -0.18335,0.11715 -0.024,0 -0.12074,0.0623 -0.2149,0.13835 -0.0943,0.0762 -0.25226,0.18631 -0.35119,0.24486 -0.0989,0.0586 -0.25835,0.1699 -0.35432,0.24746 -0.096,0.0776 -0.20323,0.16405 -0.23835,0.19223 -0.0352,0.0282 -0.12884,0.0972 -0.20809,0.15346 -0.13165,0.0933 -0.71084,0.56367 -1.13324,0.92022 -0.0936,0.079 -0.24983,0.20851 -0.347,0.28763 -0.48345,0.39362 -1.98549,1.85102 -2.7189,2.63812 -0.57414,0.61619 -1.48629,1.69557 -1.64628,1.94814 -0.0371,0.0586 -0.17047,0.22458 -0.29641,0.36892 -0.12588,0.14442 -0.27268,0.32639 -0.32609,0.40453 -0.0534,0.078 -0.14411,0.20914 -0.2016,0.2911 -0.0575,0.082 -0.14146,0.22838 -0.18679,0.32533 -0.0453,0.0969 -0.10283,0.18894 -0.12791,0.20441 -0.0251,0.0156 -0.0865,0.16268 -0.13632,0.32712 -0.14302,0.47067 -0.0723,0.70081 0.27803,0.90613 0.24753,0.14504 0.62369,0.18601 3.15431,0.34336 0.33818,0.021 1.5663,0.0522 3.36396,0.0855 0.51526,0.009 0.96936,0.0184 1.00915,0.0198 0.0791,0.003 0.58298,0.51222 1.15161,1.16446 0.23844,0.2735 0.37688,0.47109 0.40279,0.57485 0.0402,0.16127 0.0361,4.03656 -0.006,5.97055 -0.0246,1.11976 -0.0849,2.02482 -0.15003,2.25203 -0.0516,0.17983 -0.2297,0.34547 -0.37152,0.34547 -0.12651,0 -0.45674,-0.31258 -0.52781,-0.49953 -0.024,-0.0631 -0.0539,-0.33589 -0.0667,-0.60607 -0.0125,-0.27017 -0.0374,-0.702 -0.0551,-0.95962 -0.0176,-0.25764 -0.0363,-1.15824 -0.0416,-2.00135 -0.005,-0.84312 -0.0164,-1.68624 -0.0249,-1.87361 -0.009,-0.18736 -0.0196,-0.6185 -0.0248,-0.9581 -0.0109,-0.7728 -0.0626,-1.47946 -0.11716,-1.61835 -0.0491,-0.12525 -0.30183,-0.3982 -0.43422,-0.46906 -0.0841,-0.045 -0.39592,-0.0745 -1.55254,-0.14676 -0.21077,-0.0125 -0.51043,-0.0335 -0.66586,-0.045 -0.50354,-0.0377 -2.68143,-0.0255 -3.29425,0.0184 -0.32788,0.0235 -0.80693,0.055 -1.06455,0.0698 -1.37682,0.0798 -1.382,0.0809 -1.97558,0.37439 -0.40873,0.20218 -1.08379,0.80253 -1.30322,1.15899 -0.0469,0.076 -0.16522,0.24292 -0.26307,0.37075 -0.0978,0.12775 -0.20895,0.3067 -0.24689,0.39748 -0.038,0.0908 -0.10407,0.20365 -0.14691,0.25081 -0.0428,0.0472 -0.1008,0.15733 -0.12884,0.24484 -0.028,0.0876 -0.0675,0.16932 -0.0877,0.18181 -0.0556,0.0344 -0.16991,0.27954 -0.16991,0.36442 0,0.0411 -0.0575,0.19628 -0.12775,0.34475 -0.0703,0.14847 -0.12775,0.29428 -0.12775,0.32399 -2e-5,0.0298 -0.0575,0.16176 -0.12775,0.29344 -0.0703,0.13164 -0.12775,0.28535 -0.12775,0.34154 0,0.0561 -0.0363,0.17335 -0.0807,0.26038 -0.0444,0.0871 -0.10267,0.24434 -0.12962,0.34961 -0.027,0.10532 -0.0944,0.29676 -0.15003,0.42557 -0.0556,0.12884 -0.11171,0.30292 -0.12448,0.38691 -0.0296,0.19304 -0.0673,0.29864 -0.13538,0.37956 -0.0296,0.0352 -0.0848,0.21449 -0.12261,0.39861 -0.0379,0.18409 -0.0983,0.39168 -0.1343,0.46132 -0.036,0.0696 -0.084,0.24477 -0.10672,0.38917 -0.0226,0.14442 -0.0808,0.37753 -0.1293,0.51806 -0.0485,0.14052 -0.11436,0.45185 -0.14629,0.69186 -0.0321,0.24 -0.0882,0.4945 -0.12495,0.56558 -0.0368,0.071 -0.0874,0.28667 -0.11248,0.47912 -0.0251,0.19247 -0.0915,0.56539 -0.14754,0.82873 -0.0561,0.26334 -0.11232,0.64657 -0.12526,0.85164 -0.0196,0.31218 -0.0673,0.68594 -0.1694,1.32701 -0.0885,0.55587 -0.11295,1.29754 -0.10984,3.34661 0.003,2.09099 0.0181,2.42609 0.13959,3.12976 0.0466,0.26933 0.10142,0.70048 0.12214,0.95809 0.0486,0.6049 0.0743,0.78286 0.16966,1.17101 0.0432,0.17565 0.0904,0.43433 0.10501,0.57486 0.0567,0.54641 0.0682,0.61515 0.12759,0.75698 0.0337,0.0806 0.0813,0.30805 0.10578,0.50553 0.0246,0.19747 0.0824,0.46671 0.12869,0.5983 0.0463,0.13164 0.10547,0.3799 0.13149,0.55183 0.0262,0.17192 0.0852,0.39883 0.13133,0.50421 0.0461,0.10532 0.11124,0.32138 0.14473,0.47998 0.0335,0.1586 0.098,0.36094 0.14318,0.44967 0.0452,0.0886 0.11419,0.28469 0.15314,0.43552 0.0389,0.1508 0.0866,0.2934 0.10563,0.31682 0.019,0.0235 0.0671,0.15755 0.10656,0.29806 0.0394,0.14053 0.10843,0.33341 0.15299,0.42863 0.0447,0.0952 0.0813,0.21536 0.0813,0.26697 0,0.0516 0.0485,0.17069 0.1078,0.26458 0.0594,0.094 0.11965,0.23243 0.13414,0.30787 0.014,0.0756 0.081,0.25399 0.14769,0.39677 0.0667,0.14271 0.12137,0.28685 0.12137,0.32012 0,0.0332 0.0489,0.13258 0.10874,0.22053 0.0598,0.088 0.13601,0.23743 0.16944,0.33206 0.0335,0.0946 0.0994,0.22644 0.14676,0.2929 0.0474,0.0665 0.0876,0.1466 0.0893,0.17817 0.002,0.0315 0.0961,0.23933 0.20974,0.46183 0.11357,0.22249 0.32388,0.63447 0.46718,0.9155 0.27475,0.53881 0.43126,0.81583 0.51207,0.90633 0.0268,0.0301 0.0868,0.13554 0.13321,0.2342 0.10157,0.21606 0.29546,0.52397 0.52904,0.84026 0.0949,0.12837 0.22898,0.32671 0.29808,0.44067 0.19368,0.31944 0.19835,0.32666 0.42424,0.65636 0.11684,0.17048 0.2445,0.36895 0.28374,0.44102 0.0393,0.0721 0.10797,0.17209 0.15268,0.22228 0.0447,0.0502 0.19072,0.24455 0.32441,0.43191 0.4059,0.56891 0.96704,1.26222 1.44652,1.78724 0.0435,0.0475 0.12947,0.15346 0.19138,0.23541 0.062,0.0819 0.1251,0.15861 0.14052,0.17032 0.0156,0.0125 0.12729,0.14583 0.24852,0.29807 0.36054,0.45264 2.15183,2.23089 2.98503,2.96332 0.40431,0.35541 1.14949,0.96928 1.33322,1.09828 0.0961,0.0675 0.28024,0.21305 0.40905,0.32338 0.12884,0.1103 0.29169,0.23646 0.36195,0.28027 0.0703,0.0438 0.27145,0.1875 0.44711,0.31927 0.41376,0.3104 1.34591,0.93435 1.39587,0.93435 0.0212,0 0.0729,0.0379 0.11482,0.0841 0.0418,0.0463 0.11669,0.0964 0.16628,0.11155 0.0495,0.0156 0.18096,0.0921 0.29172,0.17081 0.11062,0.0788 0.35537,0.225 0.54325,0.32486 0.18805,0.0999 0.4518,0.24101 0.58625,0.31366 0.57924,0.31298 1.08594,0.57051 1.12234,0.57051 0.022,0 0.1106,0.0452 0.1983,0.10018 0.087,0.0552 0.2067,0.11528 0.2653,0.13382 0.059,0.0184 0.1732,0.0787 0.2547,0.13398 0.081,0.0553 0.1802,0.10049 0.2192,0.10049 0.039,0 0.1802,0.0575 0.3139,0.12775 0.134,0.0703 0.2761,0.12775 0.3169,0.12775 0.04,0 0.1905,0.0583 0.3331,0.12947 0.299,0.1494 0.9631,0.33412 1.1122,0.3094 0.056,-0.009 0.1612,-0.0474 0.2341,-0.0847 z m -10.81098,-14.11018 c -0.0936,-0.0189 -0.36195,-0.0572 -0.59614,-0.0852 -0.26994,-0.0322 -0.49597,-0.086 -0.61744,-0.1466 -0.10547,-0.0526 -0.29878,-0.12666 -0.42975,-0.1643 -0.13102,-0.0377 -0.2873,-0.10718 -0.34739,-0.15454 -0.0601,-0.0472 -0.12822,-0.0858 -0.15128,-0.0858 -0.0891,0 -0.72752,-0.32549 -1.0729,-0.54709 -0.6981,-0.4479 -0.86781,-0.58477 -1.49259,-1.20373 -0.67164,-0.66538 -1.12985,-1.27342 -1.50444,-1.9964 -0.0788,-0.15221 -0.17441,-0.33427 -0.21232,-0.40453 -0.0379,-0.0703 -0.069,-0.15252 -0.0692,-0.18271 -1.4e-4,-0.0302 -0.0559,-0.16437 -0.12386,-0.29808 -0.0681,-0.13367 -0.13647,-0.33532 -0.15205,-0.44803 -0.0156,-0.11264 -0.0656,-0.26787 -0.11092,-0.34482 -0.0457,-0.0773 -0.10158,-0.29068 -0.12495,-0.47637 -0.0544,-0.43173 -0.0679,-0.49847 -0.15237,-0.75293 -0.0567,-0.17055 -0.0699,-0.39191 -0.0695,-1.15894 6.6e-4,-0.95816 0.0156,-1.13137 0.11731,-1.36277 0.031,-0.0703 0.0765,-0.28605 0.10111,-0.47952 0.0246,-0.19349 0.0818,-0.43301 0.12697,-0.53228 0.0452,-0.0992 0.10158,-0.28608 0.12526,-0.41513 0.0238,-0.12899 0.0924,-0.32065 0.15252,-0.42581 0.0601,-0.10516 0.10968,-0.21993 0.10999,-0.25506 4.9e-4,-0.0352 0.0324,-0.12137 0.071,-0.19163 0.0386,-0.0703 0.14053,-0.26187 0.2265,-0.42581 0.0858,-0.16394 0.21228,-0.38174 0.28077,-0.48399 0.0686,-0.1022 0.16286,-0.24784 0.20969,-0.3235 0.0467,-0.0757 0.14271,-0.205 0.21291,-0.28738 0.0703,-0.0824 0.2044,-0.24341 0.29808,-0.35783 0.20957,-0.25592 0.80902,-0.85622 0.98065,-0.98202 0.0695,-0.0509 0.16482,-0.1276 0.21167,-0.17033 0.0469,-0.0427 0.17682,-0.14473 0.28884,-0.22665 0.11201,-0.082 0.28446,-0.21113 0.38322,-0.28702 0.0988,-0.0759 0.19298,-0.13818 0.20937,-0.13834 0.0163,-1.6e-4 0.14099,-0.0675 0.27678,-0.14941 0.13585,-0.0819 0.27295,-0.14893 0.3047,-0.14909 0.0318,-6e-5 0.11373,-0.0472 0.18223,-0.10485 0.0686,-0.0576 0.19469,-0.11793 0.28049,-0.13398 0.0858,-0.0161 0.21456,-0.0637 0.28617,-0.10563 0.0717,-0.0419 0.27172,-0.10578 0.44473,-0.14161 0.17301,-0.0358 0.35664,-0.0929 0.40807,-0.12651 0.0964,-0.0631 0.28241,-0.0964 0.72517,-0.12977 0.14053,-0.0109 0.38004,-0.0346 0.53227,-0.0536 0.72972,-0.0904 2.52481,0.0109 2.92587,0.16413 0.12214,0.0467 0.34232,0.11311 0.48948,0.14754 0.14723,0.0343 0.31211,0.0916 0.36655,0.12728 0.0545,0.0357 0.18283,0.0901 0.28528,0.1209 0.20148,0.0606 0.31831,0.12868 1.07682,0.62775 0.52549,0.34575 0.71338,0.4965 1.26331,1.01359 0.372,0.34991 1.2575,1.34008 1.2575,1.40631 0,0.0227 0.033,0.076 0.075,0.1184 0.1199,0.12464 0.336,0.44376 0.4078,0.60442 0.037,0.082 0.095,0.19694 0.1278,0.25548 0.067,0.117 0.2957,0.60188 0.4711,1.00068 0.062,0.14052 0.1293,0.3513 0.1511,0.46841 0.022,0.11715 0.061,0.27039 0.087,0.34065 0.1059,0.27854 0.1339,0.60196 0.1495,1.76715 0.017,1.24134 -0.016,1.64196 -0.1623,2.1599 -0.036,0.12229 -0.078,0.32338 -0.095,0.44676 -0.017,0.12339 -0.086,0.36182 -0.1526,0.52986 -0.067,0.16802 -0.1231,0.33526 -0.1231,0.37166 0,0.0364 -0.058,0.17927 -0.1278,0.31752 -0.07,0.13834 -0.1277,0.27988 -0.1277,0.3147 0,0.0349 -0.044,0.12822 -0.097,0.20764 -0.053,0.0795 -0.1907,0.30286 -0.3047,0.49661 -0.6365,1.08073 -2.28868,2.60565 -3.38788,3.12669 -0.65623,0.31108 -0.80565,0.37471 -0.8809,0.37511 -0.0424,1.6e-4 -0.18259,0.0496 -0.3114,0.10953 -0.14504,0.0675 -0.37038,0.12463 -0.59192,0.14987 -0.19677,0.0224 -0.5321,0.0667 -0.74519,0.0986 -0.42602,0.0636 -2.06434,0.0795 -2.34621,0.0227 z m 2.46974,-1.1853 c 0.0936,-0.0246 0.29489,-0.0765 0.44711,-0.1156 0.54044,-0.13834 1.1399,-0.3577 1.31569,-0.48145 0.0609,-0.0428 0.15408,-0.0915 0.20694,-0.10781 0.11171,-0.0346 0.89405,-0.55451 0.98909,-0.65729 0.0358,-0.0383 0.16031,-0.14411 0.27746,-0.23535 0.43996,-0.34262 0.95425,-0.94948 1.47835,-1.74468 0.1387,-0.20965 0.5017,-0.95416 0.5017,-1.0276 0,-0.0285 0.045,-0.11825 0.1,-0.19966 0.054,-0.0813 0.1137,-0.22296 0.1309,-0.31466 0.017,-0.0918 0.075,-0.26252 0.1277,-0.37962 0.061,-0.13227 0.1169,-0.38038 0.1496,-0.65472 0.028,-0.24299 0.067,-0.48252 0.086,-0.53228 0.045,-0.12121 0.047,-1.26523 6e-4,-1.55954 -0.02,-0.12884 -0.058,-0.42146 -0.083,-0.65034 -0.031,-0.27237 -0.09,-0.52493 -0.1726,-0.731 -0.069,-0.17314 -0.1262,-0.33501 -0.1262,-0.35969 0,-0.0246 -0.058,-0.15799 -0.1278,-0.29624 -0.07,-0.13835 -0.1278,-0.27998 -0.1278,-0.31491 0,-0.0349 -0.036,-0.10921 -0.079,-0.16506 -0.044,-0.0559 -0.1215,-0.20077 -0.1743,-0.32207 -0.051,-0.12136 -0.1309,-0.25358 -0.1759,-0.29403 -0.045,-0.0403 -0.081,-0.0969 -0.081,-0.12541 0,-0.10999 -0.61027,-0.83147 -1.13405,-1.34062 -0.50757,-0.49358 -1.02097,-0.88451 -1.44216,-1.09834 -0.48436,-0.2459 -0.70021,-0.33983 -0.88744,-0.38622 -0.11342,-0.0281 -0.25709,-0.0887 -0.31938,-0.13461 -0.0703,-0.0517 -0.23559,-0.0989 -0.43594,-0.12417 -0.17749,-0.0224 -0.40945,-0.0701 -0.51545,-0.10625 -0.51965,-0.17642 -1.70616,-0.17028 -2.44063,0.0125 -0.0936,0.0234 -0.27572,0.0548 -0.40453,0.0701 -0.12884,0.0156 -0.34918,0.0809 -0.48969,0.14598 -0.14052,0.0651 -0.3118,0.13196 -0.38065,0.14863 -0.0689,0.0167 -0.17421,0.0647 -0.23419,0.10672 -0.06,0.0419 -0.20818,0.1089 -0.32933,0.14847 -0.1212,0.0397 -0.24224,0.0986 -0.26908,0.13102 -0.0268,0.0324 -0.10547,0.0712 -0.17463,0.0865 -0.0692,0.0156 -0.17806,0.071 -0.2419,0.12417 -0.0639,0.0531 -0.18536,0.1424 -0.27007,0.19865 -0.0846,0.0562 -0.25713,0.17117 -0.38322,0.25549 -0.24961,0.1669 -1.04316,0.96761 -1.26254,1.27393 -0.0752,0.10501 -0.21207,0.30586 -0.30416,0.44637 -0.0921,0.14052 -0.22708,0.33811 -0.29998,0.4391 -0.0729,0.10095 -0.16272,0.25907 -0.19962,0.3513 -0.0369,0.0922 -0.0805,0.16769 -0.0971,0.16769 -0.0165,0 -0.0553,0.10064 -0.0865,0.22355 -0.031,0.12292 -0.0913,0.27323 -0.13398,0.33393 -0.0425,0.0608 -0.0981,0.24035 -0.12355,0.39923 -0.0254,0.15886 -0.0729,0.34057 -0.10562,0.40377 -0.10812,0.20918 -0.14411,0.69205 -0.13492,1.81186 0.009,1.01367 0.0168,1.1287 0.10111,1.36263 0.0506,0.14052 0.11139,0.36486 0.13507,0.49855 0.0237,0.13367 0.0796,0.31571 0.12432,0.40453 0.0446,0.0888 0.10548,0.26512 0.13539,0.39178 0.0298,0.12665 0.0996,0.29701 0.15486,0.37853 0.0553,0.0815 0.10064,0.17942 0.10064,0.21756 0,0.0382 0.0494,0.14193 0.10968,0.2307 0.0603,0.0888 0.13772,0.22253 0.17218,0.29731 0.064,0.13944 0.16315,0.29078 0.40852,0.62434 0.22472,0.3055 0.88511,0.97122 1.15525,1.16456 0.13679,0.098 0.32466,0.23965 0.41737,0.31493 0.5519,0.44805 1.9711,1.1179 2.37265,1.11986 0.0617,3.1e-4 0.23681,0.0408 0.38903,0.0902 0.15221,0.0494 0.44925,0.10267 0.66002,0.11872 0.53833,0.0408 1.79756,0.0192 2.00135,-0.0343 z m -1.80972,-4.5466 c -0.23096,-0.0358 -0.49489,-0.11685 -0.59614,-0.1832 -0.0586,-0.0383 -0.23369,-0.13274 -0.38919,-0.20996 -0.38196,-0.18952 -1.01602,-0.86082 -1.01602,-1.07571 0,-0.0361 -0.0527,-0.15976 -0.11715,-0.2745 -0.11451,-0.20412 -0.11716,-0.22369 -0.11716,-0.91121 0,-0.64169 0.008,-0.71551 0.0907,-0.85162 0.0498,-0.082 0.11373,-0.22107 0.14177,-0.30911 0.0282,-0.088 0.0743,-0.18385 0.10251,-0.21291 0.0282,-0.029 0.0927,-0.12027 0.14302,-0.2028 0.0924,-0.15096 0.52719,-0.59749 0.74801,-0.76798 0.18659,-0.14411 0.62402,-0.34388 0.89055,-0.40679 0.28111,-0.0664 0.90314,-0.0843 1.33003,-0.0382 0.44783,0.0483 0.94696,0.3024 1.30974,0.66689 0.15693,0.15766 0.32718,0.3692 0.37831,0.47006 0.0511,0.1008 0.10921,0.19388 0.12915,0.20672 0.0198,0.0125 0.11124,0.2404 0.20314,0.5057 0.13803,0.39866 0.16703,0.53925 0.16703,0.80996 0,0.76206 -0.25083,1.36559 -0.83731,2.01476 -0.29014,0.32114 -0.93027,0.66799 -1.38731,0.7517 -0.23797,0.0436 -0.93973,0.0545 -1.17382,0.0182 z m 1.11911,-1.15547 c 0.055,-0.0517 0.11793,-0.0943 0.13975,-0.0947 0.0671,-8.7e-4 0.63588,-0.56447 0.73331,-0.72598 0.0785,-0.13024 0.12853,-0.28754 0.25016,-0.78767 0.0293,-0.12043 -0.0977,-0.53943 -0.20778,-0.68613 -0.15424,-0.20544 -0.59812,-0.64698 -0.82101,-0.81671 -0.11716,-0.0891 -0.31438,-0.19365 -0.43841,-0.23216 -0.21596,-0.0671 -0.23213,-0.0665 -0.38259,0.014 -0.0865,0.0463 -0.17658,0.0844 -0.20034,0.0846 -0.0238,1.6e-4 -0.12728,0.0673 -0.23018,0.1491 -0.10282,0.0818 -0.20051,0.14862 -0.21704,0.14862 -0.0748,0 -0.58573,0.49407 -0.66056,0.63877 -0.0888,0.17176 -0.23417,0.62546 -0.23417,0.73097 0,0.0522 0.0472,0.24923 0.10469,0.43779 0.0936,0.30657 0.13383,0.37278 0.38074,0.62559 0.28571,0.29262 0.60718,0.53415 0.79204,0.59511 0.0586,0.0193 0.28306,0.0301 0.49893,0.0238 0.33695,-0.009 0.40662,-0.0246 0.49243,-0.10516 z m -3.63682,-14.80605 c -0.10827,-0.0564 -0.21373,-0.13694 -0.2342,-0.179 -0.0444,-0.0913 -0.0569,-6.0627 -0.0156,-7.40408 0.0287,-0.92496 0.031,-0.94406 0.14894,-1.16057 0.12666,-0.23266 0.17992,-0.26115 0.60193,-0.32171 0.13663,-0.0196 0.1992,-0.006 0.27679,0.0559 l 0.10033,0.0812 v 2.6332 c 0,3.96823 -0.0562,5.96307 -0.17427,6.1948 -0.0578,0.11326 -0.25195,0.20857 -0.41761,0.2049 -0.0492,-8.8e-4 -0.17808,-0.0481 -0.28644,-0.10454 z m 2.90828,-4.35388 c -0.05,-0.041 -0.13803,-0.10812 -0.19553,-0.1491 -0.0752,-0.0536 -0.11295,-0.13133 -0.13398,-0.27678 -0.0162,-0.11123 -0.0372,-0.24056 -0.0471,-0.2874 -0.0349,-0.16896 -0.043,-2.18516 -0.0109,-2.76781 0.0514,-0.93462 0.0816,-1.02466 0.39796,-1.17831 0.3391,-0.16473 0.64045,-0.0304 0.68519,0.30537 0.014,0.10532 0.0444,0.31371 0.0675,0.46293 0.0545,0.35235 0.0383,2.50295 -0.0243,3.23691 -0.0438,0.51225 -0.0586,0.5781 -0.1466,0.64936 -0.12947,0.10485 -0.46685,0.1075 -0.59216,0.005 z m 34.72099,40.05495 c 0.1387,-0.0255 0.2719,-0.0612 0.2953,-0.0793 0.023,-0.0181 0.1843,-0.0751 0.3575,-0.12697 0.1734,-0.0517 0.3597,-0.12354 0.4144,-0.15926 0.055,-0.0358 0.1792,-0.083 0.2769,-0.10501 0.098,-0.022 0.2308,-0.0779 0.2961,-0.12432 0.065,-0.0464 0.1916,-0.11046 0.2809,-0.14224 0.2203,-0.0782 1.1638,-0.57078 1.2697,-0.66265 0.047,-0.0407 0.1641,-0.10423 0.2604,-0.14146 0.097,-0.0372 0.2475,-0.11685 0.3358,-0.17681 0.089,-0.06 0.184,-0.10906 0.2122,-0.10906 0.028,0 0.1075,-0.048 0.1752,-0.1064 0.068,-0.0586 0.1448,-0.10641 0.1702,-0.10641 0.025,-3e-5 0.083,-0.0389 0.1247,-0.0863 0.042,-0.0475 0.1891,-0.14286 0.325,-0.2118 0.2558,-0.13009 0.4468,-0.25164 0.7384,-0.47048 0.094,-0.0703 0.3255,-0.23194 0.5151,-0.35926 0.1896,-0.12728 0.3692,-0.26097 0.3991,-0.297 0.03,-0.036 0.072,-0.0656 0.092,-0.0656 0.081,0 1.0627,-0.74784 1.4632,-1.11515 0.095,-0.0865 0.2333,-0.20136 0.309,-0.25549 0.6375,-0.45538 1.452,-1.17229 2.4542,-2.15994 0.4892,-0.48215 0.9202,-0.90667 0.9579,-0.94338 0.037,-0.0368 0.2507,-0.26597 0.4732,-0.50947 0.2225,-0.24349 0.5291,-0.57823 0.6813,-0.74387 0.1527,-0.16562 0.4013,-0.46183 0.5537,-0.65825 0.1526,-0.19641 0.2991,-0.37964 0.3265,-0.4072 0.054,-0.0558 0.6001,-0.77931 0.7364,-0.97844 0.048,-0.0703 0.2166,-0.30531 0.3744,-0.52233 0.158,-0.21702 0.3367,-0.47571 0.3973,-0.57486 0.061,-0.0991 0.1661,-0.272 0.2343,-0.38409 0.069,-0.11217 0.1658,-0.2654 0.2169,-0.34066 0.1679,-0.24771 0.482,-0.83002 0.482,-0.894 0,-0.0346 0.031,-0.0883 0.069,-0.11949 0.037,-0.0312 0.1106,-0.15331 0.1636,-0.27137 0.053,-0.11809 0.1262,-0.24091 0.1658,-0.27305 0.039,-0.0321 0.07,-0.0801 0.07,-0.10641 10e-5,-0.0643 0.3018,-0.64718 0.4417,-0.85331 0.061,-0.0905 0.1121,-0.1966 0.1121,-0.23562 0,-0.0389 0.047,-0.1332 0.1029,-0.20945 0.056,-0.0762 0.1152,-0.20686 0.1308,-0.2904 0.016,-0.0835 0.073,-0.22135 0.1293,-0.30624 0.055,-0.0849 0.12,-0.23149 0.1449,-0.32578 0.025,-0.0942 0.093,-0.23694 0.1527,-0.31699 0.059,-0.0801 0.1075,-0.18801 0.1075,-0.23991 0,-0.0519 0.058,-0.21583 0.1277,-0.36432 0.07,-0.14847 0.1278,-0.32118 0.1278,-0.38378 0,-0.0626 0.047,-0.16991 0.1044,-0.23843 0.058,-0.0685 0.1246,-0.2185 0.1511,-0.33328 0.025,-0.11482 0.083,-0.25999 0.1277,-0.32271 0.045,-0.0628 0.095,-0.19686 0.1122,-0.29808 0.016,-0.10127 0.083,-0.28733 0.1496,-0.41359 0.067,-0.12619 0.1215,-0.28028 0.1215,-0.34229 0,-0.062 0.037,-0.18575 0.083,-0.27496 0.045,-0.0893 0.1121,-0.29417 0.1495,-0.45544 0.037,-0.16128 0.1044,-0.38975 0.1511,-0.50772 0.047,-0.11793 0.097,-0.32425 0.1122,-0.45843 0.016,-0.13414 0.073,-0.36277 0.1262,-0.508 0.054,-0.1452 0.12,-0.39356 0.1449,-0.55186 0.025,-0.15829 0.072,-0.34605 0.1044,-0.41725 0.082,-0.18397 0.1012,-0.26415 0.1324,-0.57656 0.031,-0.31043 0.097,-0.6662 0.1642,-0.88697 0.016,-0.0391 0.033,-0.2049 0.048,-0.36841 0.016,-0.1635 0.033,-0.30817 0.04,-0.32149 0.016,-0.014 0.019,-0.19855 0.023,-0.41161 0,-0.21309 0.025,-0.48997 0.044,-0.61532 0.019,-0.12526 0.054,-0.48659 0.08,-0.80275 0.025,-0.31617 0.059,-0.71857 0.075,-0.89422 0.017,-0.17565 0.031,-1.19121 0.031,-2.25684 0,-1.77767 -0.025,-2.3953 -0.1278,-2.95944 -0.015,-0.0703 -0.053,-0.29324 -0.089,-0.49552 -0.082,-0.45973 -0.2196,-0.68494 -0.6429,-1.05643 -0.628,-0.55101 -1.0159,-0.74837 -1.8001,-0.91553 -0.3388,-0.0723 -0.4873,-0.086 -0.6167,-0.0569 -0.3138,0.0706 -0.3314,0.11669 -0.3875,1.01273 -0.016,0.22248 -0.031,0.50033 -0.039,0.61743 -0.016,0.11715 -0.025,1.3243 -0.039,2.68266 -0.036,3.61286 -0.097,6.26336 -0.1575,6.8131 -0.026,0.23705 -0.081,0.46445 -0.1418,0.59614 -0.1386,0.2937 -0.4555,0.59997 -0.7694,0.74235 -0.1946,0.0882 -0.2728,0.14956 -0.308,0.24151 -0.097,0.25162 -0.1247,0.70034 -0.1583,2.50786 -0.054,2.90922 -0.1184,4.1541 -0.2289,4.38597 -0.045,0.0936 -0.1044,0.27366 -0.1355,0.40001 -0.03,0.12635 -0.075,0.27007 -0.1028,0.31938 -0.089,0.16416 -0.3538,0.55688 -0.435,0.64336 -0.148,0.15742 -0.4624,0.39184 -0.5699,0.4248 -0.059,0.0179 -0.2214,0.0851 -0.3619,0.14925 -0.1402,0.0642 -0.3417,0.12838 -0.4471,0.14286 -0.106,0.014 -0.2397,0.0372 -0.2981,0.0508 -0.059,0.014 -0.1832,0.034 -0.2768,0.0455 -0.093,0.0109 -0.2758,0.0368 -0.4046,0.0561 -0.3086,0.0464 -0.9687,0.014 -1.3412,-0.0648 -0.1641,-0.0349 -0.3948,-0.0801 -0.5131,-0.10033 -0.2349,-0.0403 -0.5728,-0.17295 -0.5728,-0.22464 0,-0.0179 -0.036,-0.0326 -0.076,-0.0326 -0.087,0 -0.3908,-0.18894 -0.5832,-0.36219 -0.1636,-0.14753 -0.2805,-0.19137 -0.5096,-0.19137 -0.1449,0 -0.2213,0.0296 -0.3548,0.13834 -0.6364,0.5184 -0.8688,0.62557 -1.6268,0.7499 -1.1756,0.19285 -2.6703,0.10282 -3.1828,-0.19171 -0.1,-0.0572 -0.1809,-0.11934 -0.1809,-0.13803 0,-0.0187 -0.047,-0.0548 -0.1028,-0.0804 -0.1402,-0.0639 -1.1678,-1.06366 -1.2434,-1.2097 -0.051,-0.10018 -0.061,-0.65178 -0.058,-3.60758 0,-3.15203 0,-3.49942 -0.065,-3.59473 -0.067,-0.10267 -0.2549,-0.24934 -1.0033,-0.78389 -0.1997,-0.14271 -0.3862,-0.30439 -0.4144,-0.35914 -0.039,-0.0751 -0.054,-1.28208 -0.069,-4.91131 -0.019,-4.86148 -0.056,-6.20715 -0.1864,-6.43709 -0.07,-0.12417 -0.3108,-0.19862 -0.5253,-0.16237 -0.1231,0.0209 -0.2575,0.10018 -0.4707,0.27867 -0.372,0.3116 -0.4419,0.40064 -0.5752,0.73212 -0.1892,0.47144 -0.1721,0.28655 -0.2486,2.67182 -0.05,1.55369 -0.073,5.64222 -0.073,13.28555 0,7.51072 0.016,9.95327 0.073,12.37003 0.016,0.44497 0.031,1.59468 0.044,2.55491 0.033,2.48893 0.045,2.69756 0.1965,3.09131 0.1324,0.34505 0.2321,0.46012 0.5713,0.65889 0.3049,0.17862 0.6618,0.22438 1.1088,0.14209 z m 6.4271,-15.57913 c 0.3057,-0.084 0.3691,-0.12043 0.6188,-0.35644 0.1527,-0.14458 0.3129,-0.33954 0.3551,-0.43321 0.042,-0.0936 0.1168,-0.21313 0.165,-0.26541 0.1,-0.10719 0.1371,-0.43485 0.1952,-1.67207 0.068,-1.48316 0,-4.48436 -0.1153,-4.96079 -0.025,-0.10454 -0.089,-0.15866 -0.3524,-0.29808 -0.4451,-0.23564 -0.6187,-0.38696 -0.7597,-0.66301 -0.1059,-0.20769 -0.1246,-0.30034 -0.148,-0.74517 -0.015,-0.2794 -0.034,-0.60381 -0.045,-0.7209 -0.053,-0.62508 -0.072,-1.85431 -0.081,-5.84506 -0.015,-4.23563 -0.015,-4.40053 -0.092,-4.4858 -0.087,-0.0952 -0.073,-0.0953 -0.8261,0.003 -0.1756,0.0227 -0.4632,0.0422 -0.6391,0.0433 -0.2577,0.002 -0.3286,0.0164 -0.3649,0.0763 -0.03,0.0492 -0.048,0.7965 -0.053,2.2036 0,1.171 -0.017,2.36863 -0.028,2.66138 -0.016,0.29273 -0.031,1.67239 -0.047,3.06588 -0.031,3.08171 -0.045,3.55059 -0.098,3.65191 -0.023,0.0433 -0.2492,0.25987 -0.5023,0.481 -0.2528,0.22113 -0.592,0.53217 -0.7535,0.69121 l -0.2937,0.28915 0.03,0.75411 c 0.017,0.41476 0.039,0.93613 0.048,1.15864 0.016,0.22249 0.047,1.15182 0.081,2.06521 0.061,1.63364 0.064,1.66781 0.1898,2.09787 0.1569,0.53568 0.2944,0.77819 0.5618,0.98937 0.1656,0.13102 0.2647,0.17229 0.515,0.21498 0.6268,0.10687 0.7918,0.11902 1.4384,0.10625 0.5182,-0.0109 0.7334,-0.033 1.0007,-0.10657 z m 6.2928,-0.0168 c 0.495,-0.1427 0.8595,-0.42606 1.0491,-0.81537 0.1418,-0.28929 0.196,-1.38971 0.194,-3.87495 0,-1.14776 -0.078,-2.73876 -0.1433,-2.98833 -0.02,-0.0795 -0.1029,-0.16587 -0.242,-0.2552 -0.3692,-0.23702 -0.661,-0.49731 -0.8137,-0.726 -0.2589,-0.38764 -0.2631,-0.48377 -0.2946,-6.82498 l -0.025,-4.83304 -0.1075,-0.0974 c -0.059,-0.0536 -0.1387,-0.0885 -0.1778,-0.0776 -0.1137,0.0318 -0.5432,0.0681 -1.0915,0.0919 -0.4219,0.0184 -0.5175,0.0349 -0.5521,0.0952 -0.023,0.0408 -0.045,0.49492 -0.05,1.03104 -0.015,1.2302 -0.09,4.37512 -0.123,4.81174 -0.016,0.12885 -0.03,0.84738 -0.042,1.59682 -0.016,0.74944 -0.033,1.49675 -0.042,1.66069 -0.016,0.16394 -0.03,0.60467 -0.044,0.97938 -0.016,0.37473 -0.033,0.78671 -0.045,0.91552 -0.031,0.33369 -0.2117,1.01449 -0.2943,1.1056 -0.039,0.0424 -0.1813,0.12713 -0.3178,0.18841 -0.1371,0.0612 -0.2714,0.13944 -0.2999,0.17379 -0.1698,0.20457 -0.2047,6.08649 -0.041,6.82662 0.062,0.28183 0.2809,0.62933 0.5101,0.81184 0.2089,0.16634 0.256,0.18058 1.0622,0.32176 0.059,0.0109 0.4323,0.0125 0.8305,0.005 0.6205,-0.0125 0.7771,-0.0296 1.0977,-0.12199 z m 1.7126,-21.80158 c 0.2108,-0.0125 0.891,-0.0351 1.5117,-0.0503 1.8018,-0.0439 2.1571,-0.0754 2.4305,-0.21447 0.3158,-0.16064 0.5375,-0.37895 0.6679,-0.65745 0.093,-0.20086 0.1122,-0.30806 0.1278,-0.75316 0.015,-0.40441 0,-0.5652 -0.051,-0.72836 -0.039,-0.11514 -0.089,-0.33194 -0.1122,-0.48172 -0.047,-0.2987 -0.2359,-0.9403 -0.4278,-1.4518 -0.067,-0.18032 -0.1231,-0.34603 -0.1231,-0.36826 0,-0.0223 -0.058,-0.14972 -0.1277,-0.28325 -0.07,-0.13352 -0.1278,-0.27124 -0.1278,-0.30592 0,-0.0346 -0.058,-0.19402 -0.1278,-0.35412 -0.07,-0.16007 -0.1277,-0.32616 -0.1277,-0.36907 0,-0.043 -0.059,-0.16321 -0.1293,-0.26731 -0.072,-0.10407 -0.1402,-0.23824 -0.1542,-0.29806 -0.016,-0.0598 -0.061,-0.14707 -0.1013,-0.19396 -0.042,-0.0469 -0.09,-0.14271 -0.1059,-0.21293 -0.061,-0.26601 -1.0037,-2.15055 -1.1716,-2.34199 -0.041,-0.0469 -0.1044,-0.15705 -0.1402,-0.2449 -0.036,-0.0879 -0.1639,-0.3059 -0.2839,-0.48455 -0.1199,-0.17866 -0.236,-0.37157 -0.2577,-0.42868 -0.022,-0.0572 -0.087,-0.16664 -0.1464,-0.24335 -0.059,-0.0766 -0.1059,-0.15685 -0.1075,-0.17807 0,-0.0425 -0.1884,-0.33829 -0.3619,-0.57083 -0.061,-0.0819 -0.1873,-0.26402 -0.2803,-0.40453 -0.1823,-0.27541 -0.2547,-0.37579 -0.5496,-0.76095 -0.1044,-0.13757 -0.2128,-0.28721 -0.2392,-0.33273 -0.026,-0.0455 -0.095,-0.1343 -0.1526,-0.19714 -0.058,-0.0629 -0.2716,-0.33476 -0.4744,-0.60407 -0.4567,-0.60606 -0.65,-0.84333 -0.9575,-1.17473 -0.1325,-0.14255 -0.4225,-0.45742 -0.6449,-0.69968 -0.5222,-0.56843 -1.5255,-1.57185 -1.8763,-1.87645 -0.1512,-0.13087 -0.5254,-0.45659 -0.8324,-0.72389 -0.738,-0.64236 -1.1161,-0.95251 -1.5284,-1.25367 -0.1872,-0.13694 -0.35,-0.25979 -0.3619,-0.27312 -0.078,-0.089 -0.8084,-0.59417 -1.5116,-1.04556 -0.1169,-0.0751 -0.3549,-0.23051 -0.5285,-0.34521 -0.3326,-0.2197 -0.9061,-0.53513 -1.6857,-0.92709 -0.2576,-0.12946 -0.5163,-0.26279 -0.5748,-0.29616 -0.059,-0.0335 -0.1736,-0.091 -0.2555,-0.12806 -0.083,-0.0369 -0.197,-0.0949 -0.2557,-0.12853 -0.1678,-0.0964 -0.6395,-0.31474 -0.8728,-0.40393 -0.1168,-0.0447 -0.4045,-0.15864 -0.6389,-0.25307 -0.234,-0.0944 -0.6331,-0.21457 -0.8866,-0.26703 -0.4234,-0.0876 -0.4854,-0.0908 -0.7612,-0.0388 -0.4993,0.0942 -0.6573,0.25489 -0.805,0.8191 -0.1402,0.53493 -0.1559,0.68865 -0.1905,1.84066 -0.016,0.51524 -0.034,0.94859 -0.044,0.96302 -0.036,0.0622 -0.067,4.44063 -0.078,11.17281 -0.016,6.37659 -0.016,7.25414 0.051,7.36667 0.065,0.12915 1.093,1.17663 1.3708,1.39644 l 0.1496,0.11902 7.2391,-0.0192 c 3.9812,-0.0109 7.4113,-0.0294 7.622,-0.0418 z"
       id="path1" /></g></svg>
